G04 #@! TF.FileFunction,Soldermask,Bot*
%FSLAX46Y46*%
G04 Gerber Fmt 4.6, Leading zero omitted, Abs format (unit mm)*
G04 Created by KiCad (PCBNEW (after 2015-mar-04 BZR unknown)-product) date 11/22/2015 6:31:28 PM*
%MOMM*%
G01*
G04 APERTURE LIST*
%ADD10C,0.100000*%
%ADD11C,1.651000*%
%ADD12C,1.397000*%
%ADD13C,1.524000*%
%ADD14C,2.921000*%
%ADD15C,3.175000*%
%ADD16C,1.778000*%
%ADD17C,5.080000*%
G04 APERTURE END LIST*
D10*
D11*
X53086000Y-116078000D03*
X48006000Y-116078000D03*
X42164000Y-116078000D03*
X37084000Y-116078000D03*
D12*
X74549000Y-47244000D03*
X74549000Y-49784000D03*
X74549000Y-52324000D03*
X82169000Y-52324000D03*
X82169000Y-49784000D03*
X82169000Y-47244000D03*
D13*
X53848000Y-37719000D03*
X51308000Y-40259000D03*
X51308000Y-35179000D03*
D14*
X81534000Y-113538000D03*
X66294000Y-113538000D03*
X81534000Y-100838000D03*
X66294000Y-100838000D03*
X81534000Y-88138000D03*
X66294000Y-88138000D03*
D15*
X77470000Y-38100000D03*
D11*
X72390000Y-33020000D03*
X72390000Y-30480000D03*
D15*
X77470000Y-27940000D03*
X77470000Y-76200000D03*
D11*
X72390000Y-71120000D03*
X72390000Y-68580000D03*
D15*
X77470000Y-66040000D03*
D13*
X78232000Y-56388000D03*
X80772000Y-58928000D03*
X75692000Y-58928000D03*
X29972000Y-85090000D03*
X32512000Y-85090000D03*
X35052000Y-85090000D03*
X37592000Y-85090000D03*
X40132000Y-85090000D03*
X42672000Y-85090000D03*
X45212000Y-85090000D03*
X47752000Y-85090000D03*
X29972000Y-54610000D03*
X32512000Y-54610000D03*
X35052000Y-54610000D03*
X37592000Y-54610000D03*
X40132000Y-54610000D03*
X42672000Y-54610000D03*
X45212000Y-54610000D03*
X47752000Y-54610000D03*
D16*
X47752000Y-67310000D03*
X47752000Y-59182000D03*
D17*
X29210000Y-29210000D03*
X66040000Y-29210000D03*
X29210000Y-115570000D03*
X58420000Y-115570000D03*
M02*
