G04 #@! TF.FileFunction,Copper,L1,Top,Signal*
%FSLAX46Y46*%
G04 Gerber Fmt 4.6, Leading zero omitted, Abs format (unit mm)*
G04 Created by KiCad (PCBNEW (after 2015-mar-04 BZR unknown)-product) date 11/22/2015 6:31:27 PM*
%MOMM*%
G01*
G04 APERTURE LIST*
%ADD10C,0.100000*%
%ADD11R,2.032000X2.032000*%
%ADD12R,2.159000X1.270000*%
%ADD13R,1.524000X0.457200*%
%ADD14R,2.387600X0.787400*%
%ADD15R,1.168400X0.457200*%
%ADD16C,1.651000*%
%ADD17C,1.397000*%
%ADD18C,1.524000*%
%ADD19R,1.143000X1.651000*%
%ADD20R,1.651000X2.032000*%
%ADD21R,2.032000X1.651000*%
%ADD22R,1.651000X1.143000*%
%ADD23R,1.270000X1.016000*%
%ADD24C,2.921000*%
%ADD25C,3.175000*%
%ADD26R,1.016000X1.016000*%
%ADD27R,1.778000X5.842000*%
%ADD28C,1.778000*%
%ADD29C,5.080000*%
%ADD30C,1.016000*%
%ADD31C,0.381000*%
%ADD32C,0.635000*%
%ADD33C,0.304800*%
G04 APERTURE END LIST*
D10*
D11*
X29972000Y-89662000D03*
D12*
X33274000Y-88392000D03*
X33274000Y-90932000D03*
D13*
X58420000Y-45974000D03*
X58420000Y-46609000D03*
X58420000Y-47244000D03*
X58420000Y-47879000D03*
X61468000Y-45974000D03*
X61468000Y-46609000D03*
X61468000Y-47244000D03*
X61468000Y-47879000D03*
D14*
X57404000Y-33020000D03*
X57404000Y-34290000D03*
X57404000Y-35560000D03*
X57404000Y-36830000D03*
X62357000Y-36830000D03*
X62357000Y-35560000D03*
X62357000Y-34290000D03*
X62357000Y-33020000D03*
D15*
X60325000Y-55245000D03*
X60325000Y-56565800D03*
X58166000Y-55245000D03*
X58166000Y-56565800D03*
X58166000Y-55905400D03*
X60325000Y-65024000D03*
X60325000Y-66344800D03*
X58166000Y-65024000D03*
X58166000Y-66344800D03*
X58166000Y-65684400D03*
X60325000Y-78613000D03*
X60325000Y-79933800D03*
X58166000Y-78613000D03*
X58166000Y-79933800D03*
X58166000Y-79273400D03*
D16*
X53086000Y-116078000D03*
X48006000Y-116078000D03*
X42164000Y-116078000D03*
X37084000Y-116078000D03*
D17*
X74549000Y-47244000D03*
X74549000Y-49784000D03*
X74549000Y-52324000D03*
X82169000Y-52324000D03*
X82169000Y-49784000D03*
X82169000Y-47244000D03*
D18*
X53848000Y-37719000D03*
X51308000Y-40259000D03*
X51308000Y-35179000D03*
D19*
X53594000Y-88773000D03*
X51689000Y-88773000D03*
X59563000Y-88773000D03*
X57658000Y-88773000D03*
D20*
X59436000Y-42164000D03*
X62357000Y-42164000D03*
D21*
X40132000Y-33528000D03*
X40132000Y-36449000D03*
D22*
X47752000Y-47371000D03*
X47752000Y-49276000D03*
D20*
X62357000Y-39624000D03*
X59436000Y-39624000D03*
X60833000Y-30353000D03*
X57912000Y-30353000D03*
D22*
X58293000Y-59563000D03*
X58293000Y-61468000D03*
D20*
X65151000Y-52832000D03*
X62230000Y-52832000D03*
X56261000Y-53467000D03*
X53340000Y-53467000D03*
D19*
X58166000Y-53467000D03*
X60071000Y-53467000D03*
D20*
X52832000Y-63246000D03*
X55753000Y-63246000D03*
X62230000Y-62611000D03*
X65151000Y-62611000D03*
X52832000Y-76835000D03*
X55753000Y-76835000D03*
X62230000Y-76073000D03*
X65151000Y-76073000D03*
D19*
X58674000Y-49911000D03*
X60579000Y-49911000D03*
D20*
X65151000Y-60071000D03*
X62230000Y-60071000D03*
D19*
X58293000Y-63246000D03*
X60198000Y-63246000D03*
D20*
X65151000Y-69342000D03*
X62230000Y-69342000D03*
D19*
X58166000Y-76835000D03*
X60071000Y-76835000D03*
D22*
X59436000Y-69850000D03*
X59436000Y-67945000D03*
X68961000Y-73025000D03*
X68961000Y-71120000D03*
D23*
X51689000Y-92710000D03*
X51689000Y-90678000D03*
X53975000Y-91694000D03*
X57658000Y-92710000D03*
X57658000Y-90678000D03*
X59944000Y-91694000D03*
D22*
X57404000Y-69850000D03*
X57404000Y-67945000D03*
X68834000Y-64389000D03*
X68834000Y-62484000D03*
D24*
X81534000Y-113538000D03*
X66294000Y-113538000D03*
X81534000Y-100838000D03*
X66294000Y-100838000D03*
X81534000Y-88138000D03*
X66294000Y-88138000D03*
D25*
X77470000Y-38100000D03*
D16*
X72390000Y-33020000D03*
X72390000Y-30480000D03*
D25*
X77470000Y-27940000D03*
X77470000Y-76200000D03*
D16*
X72390000Y-71120000D03*
X72390000Y-68580000D03*
D25*
X77470000Y-66040000D03*
D26*
X51943000Y-83947000D03*
X54864000Y-83947000D03*
X60833000Y-83947000D03*
X57912000Y-83947000D03*
D27*
X51943000Y-99441000D03*
X51943000Y-110109000D03*
X37084000Y-99441000D03*
X37084000Y-110109000D03*
D20*
X54864000Y-86360000D03*
X51943000Y-86360000D03*
X60833000Y-86360000D03*
X57912000Y-86360000D03*
D22*
X65151000Y-36830000D03*
X65151000Y-38735000D03*
D19*
X55499000Y-30607000D03*
X53594000Y-30607000D03*
D21*
X67437000Y-37084000D03*
X67437000Y-40005000D03*
D20*
X55245000Y-28194000D03*
X52324000Y-28194000D03*
X62230000Y-55245000D03*
X65151000Y-55245000D03*
X56261000Y-55880000D03*
X53340000Y-55880000D03*
D21*
X68834000Y-69215000D03*
X68834000Y-66294000D03*
D20*
X55753000Y-65659000D03*
X52832000Y-65659000D03*
X62230000Y-65024000D03*
X65151000Y-65024000D03*
X55753000Y-79375000D03*
X52832000Y-79375000D03*
X62230000Y-78613000D03*
X65151000Y-78613000D03*
D21*
X57150000Y-74549000D03*
X57150000Y-71628000D03*
D18*
X78232000Y-56388000D03*
X80772000Y-58928000D03*
X75692000Y-58928000D03*
X29972000Y-85090000D03*
X32512000Y-85090000D03*
X35052000Y-85090000D03*
X37592000Y-85090000D03*
X40132000Y-85090000D03*
X42672000Y-85090000D03*
X45212000Y-85090000D03*
X47752000Y-85090000D03*
X29972000Y-54610000D03*
X32512000Y-54610000D03*
X35052000Y-54610000D03*
X37592000Y-54610000D03*
X40132000Y-54610000D03*
X42672000Y-54610000D03*
X45212000Y-54610000D03*
X47752000Y-54610000D03*
D28*
X47752000Y-67310000D03*
X47752000Y-59182000D03*
D29*
X29210000Y-29210000D03*
X66040000Y-29210000D03*
X29210000Y-115570000D03*
X58420000Y-115570000D03*
D30*
X58166000Y-57785000D03*
X56642000Y-47498000D03*
X68961000Y-74422000D03*
X54102000Y-107823000D03*
X35052000Y-99441000D03*
X52070000Y-30607000D03*
X65151000Y-40259000D03*
X53340000Y-57658000D03*
X65151000Y-57150000D03*
X65151000Y-66929000D03*
X59436000Y-71247000D03*
X52832000Y-67564000D03*
X51054000Y-79375000D03*
X66929000Y-78613000D03*
X62738000Y-85979000D03*
X54864000Y-82423000D03*
X56642000Y-49911000D03*
X51181000Y-49911000D03*
X40132000Y-88265000D03*
X40132000Y-92710000D03*
X40132000Y-46990000D03*
X40132000Y-43053000D03*
X50800000Y-94742000D03*
X54229000Y-94742000D03*
X37592000Y-46990000D03*
X37592000Y-44450000D03*
X46609000Y-42164000D03*
X52832000Y-42164000D03*
X63754000Y-80391000D03*
X63754000Y-82677000D03*
X64770000Y-48514000D03*
X56642000Y-45720000D03*
X46736000Y-45720000D03*
X35814000Y-67310000D03*
D31*
X58166000Y-77216000D02*
X58166000Y-76835000D01*
X58166000Y-78613000D02*
X58166000Y-77216000D01*
X57912000Y-75184000D02*
X57150000Y-74549000D01*
X57912000Y-76327000D02*
X57912000Y-75184000D01*
X58166000Y-76581000D02*
X57912000Y-76327000D01*
X58166000Y-76835000D02*
X58166000Y-76581000D01*
X57404000Y-71628000D02*
X57150000Y-71628000D01*
X57404000Y-69850000D02*
X57404000Y-71628000D01*
X62230000Y-78486000D02*
X62230000Y-78613000D01*
X62103000Y-78613000D02*
X62230000Y-78486000D01*
X60325000Y-78613000D02*
X62103000Y-78613000D01*
X62230000Y-76581000D02*
X62230000Y-76073000D01*
X62230000Y-78613000D02*
X62230000Y-76581000D01*
X58166000Y-56565800D02*
X58166000Y-57785000D01*
X58039000Y-47244000D02*
X56896000Y-47244000D01*
X56896000Y-47244000D02*
X56642000Y-47498000D01*
X68961000Y-73025000D02*
X68961000Y-74422000D01*
X52451000Y-107823000D02*
X54102000Y-107823000D01*
X51943000Y-108331000D02*
X52451000Y-107823000D01*
X51943000Y-110109000D02*
X51943000Y-108331000D01*
X37084000Y-99441000D02*
X35052000Y-99441000D01*
X35179000Y-54483000D02*
X35052000Y-54610000D01*
X35052000Y-54610000D02*
X35179000Y-54483000D01*
X35052000Y-54864000D02*
X35052000Y-54610000D01*
X52070000Y-28575000D02*
X52324000Y-28194000D01*
X52070000Y-30607000D02*
X53594000Y-30607000D01*
X52070000Y-28575000D02*
X52070000Y-30607000D01*
X67056000Y-40259000D02*
X67437000Y-40005000D01*
X65151000Y-40259000D02*
X65151000Y-38735000D01*
X67056000Y-40259000D02*
X65151000Y-40259000D01*
X53340000Y-55880000D02*
X53340000Y-57658000D01*
X65151000Y-55245000D02*
X65151000Y-57150000D01*
X65151000Y-65024000D02*
X65151000Y-66929000D01*
X59436000Y-69850000D02*
X59436000Y-71247000D01*
X52832000Y-65659000D02*
X52832000Y-67564000D01*
X52832000Y-79375000D02*
X51054000Y-79375000D01*
X65151000Y-78613000D02*
X66929000Y-78613000D01*
X61087000Y-85979000D02*
X62738000Y-85979000D01*
X60833000Y-86233000D02*
X61087000Y-85979000D01*
X60833000Y-83947000D02*
X60833000Y-86233000D01*
X54864000Y-86360000D02*
X54864000Y-83947000D01*
X54864000Y-83947000D02*
X54864000Y-82423000D01*
X55753000Y-77216000D02*
X55753000Y-76835000D01*
X55753000Y-78994000D02*
X55753000Y-77216000D01*
X56032400Y-79273400D02*
X55753000Y-78994000D01*
X58166000Y-79273400D02*
X56032400Y-79273400D01*
X62230000Y-62865000D02*
X62230000Y-62611000D01*
X62230000Y-64770000D02*
X62230000Y-62865000D01*
X61976000Y-65024000D02*
X62230000Y-64770000D01*
X60325000Y-65024000D02*
X61976000Y-65024000D01*
X55753000Y-63754000D02*
X55753000Y-63246000D01*
X55753000Y-65532000D02*
X55753000Y-63754000D01*
X55905400Y-65684400D02*
X55753000Y-65532000D01*
X58166000Y-65684400D02*
X55905400Y-65684400D01*
X72390000Y-71120000D02*
X68961000Y-71120000D01*
X69088000Y-70993000D02*
X68961000Y-71120000D01*
X68834000Y-69215000D02*
X68834000Y-71374000D01*
X68834000Y-71374000D02*
X68961000Y-71120000D01*
X68834000Y-64389000D02*
X68834000Y-66040000D01*
X68834000Y-66040000D02*
X68834000Y-66294000D01*
X56388000Y-53848000D02*
X56261000Y-53467000D01*
X56388000Y-55753000D02*
X56388000Y-53848000D01*
X56540400Y-55905400D02*
X56388000Y-55753000D01*
X58166000Y-55905400D02*
X56540400Y-55905400D01*
X62230000Y-53086000D02*
X62230000Y-52832000D01*
X62230000Y-55245000D02*
X62230000Y-53086000D01*
X60325000Y-55245000D02*
X62230000Y-55245000D01*
D32*
X40132000Y-29972000D02*
X40132000Y-33528000D01*
X43688000Y-26416000D02*
X40132000Y-29972000D01*
X53975000Y-26416000D02*
X43688000Y-26416000D01*
X55245000Y-27686000D02*
X53975000Y-26416000D01*
X55245000Y-28194000D02*
X55245000Y-27686000D01*
X55499000Y-28448000D02*
X55245000Y-28194000D01*
X55499000Y-30607000D02*
X55499000Y-28448000D01*
X57912000Y-30480000D02*
X57912000Y-30353000D01*
X57912000Y-32893000D02*
X57912000Y-30480000D01*
X57785000Y-33020000D02*
X57912000Y-32893000D01*
X57404000Y-33020000D02*
X57785000Y-33020000D01*
X57912000Y-30607000D02*
X57912000Y-30353000D01*
X55499000Y-30607000D02*
X57912000Y-30607000D01*
X62357000Y-39243000D02*
X62357000Y-39624000D01*
X62357000Y-36830000D02*
X62357000Y-39243000D01*
X62357000Y-42037000D02*
X62357000Y-42164000D01*
X62357000Y-39624000D02*
X62357000Y-42037000D01*
X64770000Y-36830000D02*
X65151000Y-36830000D01*
X62357000Y-36830000D02*
X64770000Y-36830000D01*
X67183000Y-36830000D02*
X67437000Y-37084000D01*
X65151000Y-36830000D02*
X67183000Y-36830000D01*
D31*
X57785000Y-88900000D02*
X57658000Y-88773000D01*
X57658000Y-89027000D02*
X57785000Y-88900000D01*
X57658000Y-90678000D02*
X57658000Y-89027000D01*
X57785000Y-86487000D02*
X57912000Y-86360000D01*
X57658000Y-86614000D02*
X57785000Y-86487000D01*
X57658000Y-88773000D02*
X57658000Y-86614000D01*
X57785000Y-86106000D02*
X57912000Y-86360000D01*
X57912000Y-85979000D02*
X57785000Y-86106000D01*
X57912000Y-83947000D02*
X57912000Y-85979000D01*
X51816000Y-89027000D02*
X51689000Y-88773000D01*
X51689000Y-89154000D02*
X51816000Y-89027000D01*
X51689000Y-90678000D02*
X51689000Y-89154000D01*
X51943000Y-86995000D02*
X51943000Y-86360000D01*
X51689000Y-87249000D02*
X51943000Y-86995000D01*
X51689000Y-88773000D02*
X51689000Y-87249000D01*
X51943000Y-83947000D02*
X51943000Y-86360000D01*
D32*
X40132000Y-85090000D02*
X40132000Y-63246000D01*
X40132000Y-88265000D02*
X40132000Y-85090000D01*
D31*
X58674000Y-49911000D02*
X56642000Y-49911000D01*
X51181000Y-49911000D02*
X49911000Y-51181000D01*
X49911000Y-51181000D02*
X49911000Y-60833000D01*
X49911000Y-60833000D02*
X47498000Y-63246000D01*
X47498000Y-63246000D02*
X40132000Y-63246000D01*
X58674000Y-49911000D02*
X58674000Y-47879000D01*
X58674000Y-47879000D02*
X58039000Y-47879000D01*
D32*
X37211000Y-116078000D02*
X37084000Y-116078000D01*
X40132000Y-113157000D02*
X37211000Y-116078000D01*
X40132000Y-110109000D02*
X40132000Y-113157000D01*
X37084000Y-110109000D02*
X40132000Y-110109000D01*
X40132000Y-92710000D02*
X40132000Y-110109000D01*
X40132000Y-54610000D02*
X40132000Y-63246000D01*
X40259000Y-36576000D02*
X40132000Y-36449000D01*
X40132000Y-36703000D02*
X40259000Y-36576000D01*
X40132000Y-36703000D02*
X40132000Y-36449000D01*
X40132000Y-43053000D02*
X40132000Y-36703000D01*
X40132000Y-54610000D02*
X40132000Y-46990000D01*
X59690000Y-89154000D02*
X59563000Y-88773000D01*
X59817000Y-91694000D02*
X59690000Y-91567000D01*
X59944000Y-91694000D02*
X59817000Y-91694000D01*
D31*
X59690000Y-89154000D02*
X59563000Y-88773000D01*
X59563000Y-89281000D02*
X59690000Y-89154000D01*
X59563000Y-91313000D02*
X59563000Y-89281000D01*
X59944000Y-91694000D02*
X59563000Y-91313000D01*
X59817000Y-91694000D02*
X59944000Y-91694000D01*
X46609000Y-94742000D02*
X50800000Y-94742000D01*
X54229000Y-94742000D02*
X58293000Y-94742000D01*
X58293000Y-94742000D02*
X59817000Y-93218000D01*
X59817000Y-93218000D02*
X59817000Y-91694000D01*
X40132000Y-88265000D02*
X46609000Y-94742000D01*
X61087000Y-46609000D02*
X62484000Y-46609000D01*
X60198000Y-42672000D02*
X59436000Y-42291000D01*
X61722000Y-44196000D02*
X60198000Y-42672000D01*
X62992000Y-45466000D02*
X61722000Y-44196000D01*
X62992000Y-46101000D02*
X62992000Y-45466000D01*
X62484000Y-46609000D02*
X62992000Y-46101000D01*
X59436000Y-42291000D02*
X59436000Y-42164000D01*
D32*
X37592000Y-88138000D02*
X48006000Y-98552000D01*
X48006000Y-99441000D02*
X48006000Y-116078000D01*
X48006000Y-98552000D02*
X48006000Y-99441000D01*
X37592000Y-85217000D02*
X37592000Y-88138000D01*
X51943000Y-99441000D02*
X48006000Y-99441000D01*
X37592000Y-54737000D02*
X37592000Y-85217000D01*
D31*
X59436000Y-42291000D02*
X59436000Y-42164000D01*
D32*
X37592000Y-55118000D02*
X37592000Y-54737000D01*
X52832000Y-42164000D02*
X59436000Y-42164000D01*
X44323000Y-44450000D02*
X37592000Y-44450000D01*
X46609000Y-42164000D02*
X44323000Y-44450000D01*
X37592000Y-54737000D02*
X37592000Y-46990000D01*
X53721000Y-89154000D02*
X53594000Y-88773000D01*
D31*
X53721000Y-89154000D02*
X53594000Y-88773000D01*
X53721000Y-91567000D02*
X53721000Y-89154000D01*
X53848000Y-91694000D02*
X53721000Y-91567000D01*
X53975000Y-91694000D02*
X53848000Y-91694000D01*
X52197000Y-97536000D02*
X51943000Y-99441000D01*
X53975000Y-92964000D02*
X52197000Y-94742000D01*
X52197000Y-94742000D02*
X52197000Y-97536000D01*
X53975000Y-91694000D02*
X53975000Y-92964000D01*
D32*
X72390000Y-33020000D02*
X62357000Y-33020000D01*
D31*
X42037000Y-116078000D02*
X42164000Y-116078000D01*
D32*
X43942000Y-117983000D02*
X42037000Y-116078000D01*
X48768000Y-117983000D02*
X43942000Y-117983000D01*
X50038000Y-116713000D02*
X48768000Y-117983000D01*
X50038000Y-106045000D02*
X50038000Y-116713000D01*
X51054000Y-105029000D02*
X50038000Y-106045000D01*
X53975000Y-105029000D02*
X51054000Y-105029000D01*
X66294000Y-92710000D02*
X53975000Y-105029000D01*
X66294000Y-88265000D02*
X66294000Y-92710000D01*
D31*
X66167000Y-88138000D02*
X66294000Y-88265000D01*
D32*
X81534000Y-88138000D02*
X66167000Y-88138000D01*
X53086000Y-114681000D02*
X53086000Y-116078000D01*
X56261000Y-111506000D02*
X53086000Y-114681000D01*
X64262000Y-111506000D02*
X56261000Y-111506000D01*
X66294000Y-113538000D02*
X64262000Y-111506000D01*
X81534000Y-113538000D02*
X66294000Y-113538000D01*
D31*
X47752000Y-54737000D02*
X47752000Y-49403000D01*
X47752000Y-49403000D02*
X47752000Y-49276000D01*
X47752000Y-59182000D02*
X47752000Y-54991000D01*
X47752000Y-54991000D02*
X47752000Y-54737000D01*
X68834000Y-62484000D02*
X77089000Y-62484000D01*
X77089000Y-62484000D02*
X80645000Y-58928000D01*
X80645000Y-58928000D02*
X80772000Y-58928000D01*
X69469000Y-62230000D02*
X69088000Y-62611000D01*
X69088000Y-62611000D02*
X68834000Y-62484000D01*
X57531000Y-67945000D02*
X57404000Y-67945000D01*
X59436000Y-67945000D02*
X57531000Y-67945000D01*
X57785000Y-67945000D02*
X57404000Y-67945000D01*
X57785000Y-66421000D02*
X57785000Y-67945000D01*
X57861200Y-66344800D02*
X57785000Y-66421000D01*
X58166000Y-66344800D02*
X57861200Y-66344800D01*
X57531000Y-92710000D02*
X57658000Y-92710000D01*
X63754000Y-76073000D02*
X63754000Y-80391000D01*
X63754000Y-62611000D02*
X63754000Y-76073000D01*
X63754000Y-52832000D02*
X63754000Y-62611000D01*
X63754000Y-82677000D02*
X57023000Y-82677000D01*
X57023000Y-82677000D02*
X56388000Y-83312000D01*
X56388000Y-83312000D02*
X56388000Y-92456000D01*
X56388000Y-92456000D02*
X56642000Y-92710000D01*
X56642000Y-92710000D02*
X57531000Y-92710000D01*
X65151000Y-52832000D02*
X63754000Y-52832000D01*
X65151000Y-62611000D02*
X63754000Y-62611000D01*
X65151000Y-76073000D02*
X63754000Y-76073000D01*
X64770000Y-52832000D02*
X65151000Y-52832000D01*
X64770000Y-48514000D02*
X64770000Y-52832000D01*
X51562000Y-92710000D02*
X51689000Y-92710000D01*
X51562000Y-53467000D02*
X51562000Y-59182000D01*
X51562000Y-59182000D02*
X54356000Y-61976000D01*
X54356000Y-76835000D02*
X54356000Y-81026000D01*
X54356000Y-63246000D02*
X54356000Y-76835000D01*
X54356000Y-61976000D02*
X54356000Y-63246000D01*
X54356000Y-81026000D02*
X53594000Y-81788000D01*
X53594000Y-81788000D02*
X50546000Y-81788000D01*
X50546000Y-81788000D02*
X49784000Y-82550000D01*
X49784000Y-82550000D02*
X49784000Y-91948000D01*
X49784000Y-91948000D02*
X50546000Y-92710000D01*
X50546000Y-92710000D02*
X51562000Y-92710000D01*
X53340000Y-53467000D02*
X51562000Y-53467000D01*
X52832000Y-76835000D02*
X54356000Y-76835000D01*
X52832000Y-63246000D02*
X54356000Y-63246000D01*
X51308000Y-46355000D02*
X53340000Y-48387000D01*
X53340000Y-48387000D02*
X53340000Y-53467000D01*
X51308000Y-40259000D02*
X51308000Y-46355000D01*
X62230000Y-69596000D02*
X62230000Y-69342000D01*
X60071000Y-73787000D02*
X62230000Y-71628000D01*
X62230000Y-71628000D02*
X62230000Y-69596000D01*
X60071000Y-76835000D02*
X60071000Y-73787000D01*
D33*
X59944000Y-77089000D02*
X60071000Y-76835000D01*
X59258200Y-77774800D02*
X59944000Y-77089000D01*
X59258200Y-79451200D02*
X59258200Y-77774800D01*
X59740800Y-79933800D02*
X59258200Y-79451200D01*
X60325000Y-79933800D02*
X59740800Y-79933800D01*
D31*
X71628000Y-52324000D02*
X70358000Y-53594000D01*
X70358000Y-53594000D02*
X70358000Y-57912000D01*
X70358000Y-57912000D02*
X66929000Y-61341000D01*
X66929000Y-61341000D02*
X66929000Y-67564000D01*
X66929000Y-67564000D02*
X65151000Y-69342000D01*
X74549000Y-52324000D02*
X71628000Y-52324000D01*
X58166000Y-63754000D02*
X58293000Y-63246000D01*
X58166000Y-65024000D02*
X58166000Y-63754000D01*
X58293000Y-62992000D02*
X58293000Y-63246000D01*
X58293000Y-61468000D02*
X58293000Y-62992000D01*
X58039000Y-61468000D02*
X58293000Y-61468000D01*
X61087000Y-45593000D02*
X60071000Y-44577000D01*
X60071000Y-44577000D02*
X55753000Y-44577000D01*
X55753000Y-44577000D02*
X54737000Y-45593000D01*
X54737000Y-45593000D02*
X54737000Y-59182000D01*
X54737000Y-59182000D02*
X57023000Y-61468000D01*
X57023000Y-61468000D02*
X58039000Y-61468000D01*
X61087000Y-45974000D02*
X61087000Y-45593000D01*
X61976000Y-60071000D02*
X62230000Y-60071000D01*
X60198000Y-60960000D02*
X61087000Y-60071000D01*
X61087000Y-60071000D02*
X61976000Y-60071000D01*
X60198000Y-63246000D02*
X60198000Y-60960000D01*
D33*
X60020200Y-63804800D02*
X60198000Y-63246000D01*
X59944000Y-63804800D02*
X60020200Y-63804800D01*
X59613800Y-66344800D02*
X59232800Y-65963800D01*
X59232800Y-65963800D02*
X59232800Y-64516000D01*
X59232800Y-64516000D02*
X59944000Y-63804800D01*
X60325000Y-66344800D02*
X59613800Y-66344800D01*
D31*
X70993000Y-49784000D02*
X68072000Y-52705000D01*
X68072000Y-52705000D02*
X68072000Y-57150000D01*
X68072000Y-57150000D02*
X65151000Y-60071000D01*
X74549000Y-49784000D02*
X70993000Y-49784000D01*
X29972000Y-85090000D02*
X29972000Y-89281000D01*
X29972000Y-89281000D02*
X30099000Y-89408000D01*
X30099000Y-89408000D02*
X29972000Y-89662000D01*
X29972000Y-85090000D02*
X29972000Y-64389000D01*
X56896000Y-45974000D02*
X58166000Y-45974000D01*
X56642000Y-45720000D02*
X56896000Y-45974000D01*
X29718000Y-45720000D02*
X46736000Y-45720000D01*
X27686000Y-47752000D02*
X29718000Y-45720000D01*
X27686000Y-62103000D02*
X27686000Y-47752000D01*
X29972000Y-64389000D02*
X27686000Y-62103000D01*
X58166000Y-45974000D02*
X58420000Y-45974000D01*
X58166000Y-80772000D02*
X58801000Y-81407000D01*
X58801000Y-81407000D02*
X66929000Y-81407000D01*
X66929000Y-81407000D02*
X82677000Y-65659000D01*
X82677000Y-65659000D02*
X82677000Y-57404000D01*
X82677000Y-57404000D02*
X81661000Y-56388000D01*
X81661000Y-56388000D02*
X78232000Y-56388000D01*
X58166000Y-79933800D02*
X58166000Y-80772000D01*
X61214000Y-47244000D02*
X61087000Y-47244000D01*
X63246000Y-47244000D02*
X61214000Y-47244000D01*
X74549000Y-47244000D02*
X63246000Y-47244000D01*
X62484000Y-49911000D02*
X63246000Y-49149000D01*
X63246000Y-49149000D02*
X63246000Y-47244000D01*
X60579000Y-49911000D02*
X62484000Y-49911000D01*
X56007000Y-46609000D02*
X55499000Y-47117000D01*
X58039000Y-46609000D02*
X56007000Y-46609000D01*
X58166000Y-52324000D02*
X58166000Y-53340000D01*
X57531000Y-51689000D02*
X58166000Y-52324000D01*
X56642000Y-51689000D02*
X57531000Y-51689000D01*
X55499000Y-50546000D02*
X56642000Y-51689000D01*
X55499000Y-47117000D02*
X55499000Y-50546000D01*
X58166000Y-53467000D02*
X58166000Y-55245000D01*
X58166000Y-53340000D02*
X58166000Y-53467000D01*
X58166000Y-53340000D02*
X58166000Y-53467000D01*
X60452000Y-56642000D02*
X60325000Y-56565800D01*
X60452000Y-57785000D02*
X60452000Y-56642000D01*
X58674000Y-59563000D02*
X60452000Y-57785000D01*
X58293000Y-59563000D02*
X58674000Y-59563000D01*
D33*
X59664600Y-54152800D02*
X60071000Y-53467000D01*
X59537600Y-56565800D02*
X59258200Y-56286400D01*
X59258200Y-56286400D02*
X59258200Y-54559200D01*
X59258200Y-54559200D02*
X59664600Y-54152800D01*
X60325000Y-56565800D02*
X59537600Y-56565800D01*
D31*
X60452000Y-30988000D02*
X60833000Y-30353000D01*
X60706000Y-34290000D02*
X60452000Y-34036000D01*
X60452000Y-34036000D02*
X60452000Y-30988000D01*
X62357000Y-34290000D02*
X60706000Y-34290000D01*
X59436000Y-39497000D02*
X59436000Y-39624000D01*
X58928000Y-34290000D02*
X59436000Y-34798000D01*
X59436000Y-34798000D02*
X59436000Y-39497000D01*
X57404000Y-34290000D02*
X58928000Y-34290000D01*
X54737000Y-36830000D02*
X53848000Y-37719000D01*
X57404000Y-36830000D02*
X54737000Y-36830000D01*
X48260000Y-47371000D02*
X47752000Y-47371000D01*
X51181000Y-37719000D02*
X48260000Y-40640000D01*
X48260000Y-40640000D02*
X48260000Y-47371000D01*
X53848000Y-37719000D02*
X51181000Y-37719000D01*
X33020000Y-88519000D02*
X33274000Y-88392000D01*
X32512000Y-88011000D02*
X33020000Y-88519000D01*
X32512000Y-85217000D02*
X32512000Y-88011000D01*
X47752000Y-85090000D02*
X47752000Y-67437000D01*
X47752000Y-67437000D02*
X47752000Y-67310000D01*
X29972000Y-61468000D02*
X35814000Y-67310000D01*
X29972000Y-54610000D02*
X29972000Y-61468000D01*
X47752000Y-67437000D02*
X47752000Y-67310000D01*
M02*
