G04 #@! TF.FileFunction,Soldermask,Top*
%FSLAX46Y46*%
G04 Gerber Fmt 4.6, Leading zero omitted, Abs format (unit mm)*
G04 Created by KiCad (PCBNEW (after 2015-mar-04 BZR unknown)-product) date 11/22/2015 6:31:28 PM*
%MOMM*%
G01*
G04 APERTURE LIST*
%ADD10C,0.100000*%
%ADD11R,2.032000X2.032000*%
%ADD12R,2.159000X1.270000*%
%ADD13R,1.524000X0.457200*%
%ADD14R,2.387600X0.787400*%
%ADD15R,1.168400X0.457200*%
%ADD16C,1.651000*%
%ADD17C,1.397000*%
%ADD18C,1.524000*%
%ADD19R,1.143000X1.651000*%
%ADD20R,1.651000X2.032000*%
%ADD21R,2.032000X1.651000*%
%ADD22R,1.651000X1.143000*%
%ADD23R,1.270000X1.016000*%
%ADD24C,2.921000*%
%ADD25C,3.175000*%
%ADD26R,1.016000X1.016000*%
%ADD27R,1.778000X5.842000*%
%ADD28C,1.778000*%
%ADD29C,5.080000*%
G04 APERTURE END LIST*
D10*
D11*
X29972000Y-89662000D03*
D12*
X33274000Y-88392000D03*
X33274000Y-90932000D03*
D13*
X58420000Y-45974000D03*
X58420000Y-46609000D03*
X58420000Y-47244000D03*
X58420000Y-47879000D03*
X61468000Y-45974000D03*
X61468000Y-46609000D03*
X61468000Y-47244000D03*
X61468000Y-47879000D03*
D14*
X57404000Y-33020000D03*
X57404000Y-34290000D03*
X57404000Y-35560000D03*
X57404000Y-36830000D03*
X62357000Y-36830000D03*
X62357000Y-35560000D03*
X62357000Y-34290000D03*
X62357000Y-33020000D03*
D15*
X60325000Y-55245000D03*
X60325000Y-56565800D03*
X58166000Y-55245000D03*
X58166000Y-56565800D03*
X58166000Y-55905400D03*
X60325000Y-65024000D03*
X60325000Y-66344800D03*
X58166000Y-65024000D03*
X58166000Y-66344800D03*
X58166000Y-65684400D03*
X60325000Y-78613000D03*
X60325000Y-79933800D03*
X58166000Y-78613000D03*
X58166000Y-79933800D03*
X58166000Y-79273400D03*
D16*
X53086000Y-116078000D03*
X48006000Y-116078000D03*
X42164000Y-116078000D03*
X37084000Y-116078000D03*
D17*
X74549000Y-47244000D03*
X74549000Y-49784000D03*
X74549000Y-52324000D03*
X82169000Y-52324000D03*
X82169000Y-49784000D03*
X82169000Y-47244000D03*
D18*
X53848000Y-37719000D03*
X51308000Y-40259000D03*
X51308000Y-35179000D03*
D19*
X53594000Y-88773000D03*
X51689000Y-88773000D03*
X59563000Y-88773000D03*
X57658000Y-88773000D03*
D20*
X59436000Y-42164000D03*
X62357000Y-42164000D03*
D21*
X40132000Y-33528000D03*
X40132000Y-36449000D03*
D22*
X47752000Y-47371000D03*
X47752000Y-49276000D03*
D20*
X62357000Y-39624000D03*
X59436000Y-39624000D03*
X60833000Y-30353000D03*
X57912000Y-30353000D03*
D22*
X58293000Y-59563000D03*
X58293000Y-61468000D03*
D20*
X65151000Y-52832000D03*
X62230000Y-52832000D03*
X56261000Y-53467000D03*
X53340000Y-53467000D03*
D19*
X58166000Y-53467000D03*
X60071000Y-53467000D03*
D20*
X52832000Y-63246000D03*
X55753000Y-63246000D03*
X62230000Y-62611000D03*
X65151000Y-62611000D03*
X52832000Y-76835000D03*
X55753000Y-76835000D03*
X62230000Y-76073000D03*
X65151000Y-76073000D03*
D19*
X58674000Y-49911000D03*
X60579000Y-49911000D03*
D20*
X65151000Y-60071000D03*
X62230000Y-60071000D03*
D19*
X58293000Y-63246000D03*
X60198000Y-63246000D03*
D20*
X65151000Y-69342000D03*
X62230000Y-69342000D03*
D19*
X58166000Y-76835000D03*
X60071000Y-76835000D03*
D22*
X59436000Y-69850000D03*
X59436000Y-67945000D03*
X68961000Y-73025000D03*
X68961000Y-71120000D03*
D23*
X51689000Y-92710000D03*
X51689000Y-90678000D03*
X53975000Y-91694000D03*
X57658000Y-92710000D03*
X57658000Y-90678000D03*
X59944000Y-91694000D03*
D22*
X57404000Y-69850000D03*
X57404000Y-67945000D03*
X68834000Y-64389000D03*
X68834000Y-62484000D03*
D24*
X81534000Y-113538000D03*
X66294000Y-113538000D03*
X81534000Y-100838000D03*
X66294000Y-100838000D03*
X81534000Y-88138000D03*
X66294000Y-88138000D03*
D25*
X77470000Y-38100000D03*
D16*
X72390000Y-33020000D03*
X72390000Y-30480000D03*
D25*
X77470000Y-27940000D03*
X77470000Y-76200000D03*
D16*
X72390000Y-71120000D03*
X72390000Y-68580000D03*
D25*
X77470000Y-66040000D03*
D26*
X51943000Y-83947000D03*
X54864000Y-83947000D03*
X60833000Y-83947000D03*
X57912000Y-83947000D03*
D27*
X51943000Y-99441000D03*
X51943000Y-110109000D03*
X37084000Y-99441000D03*
X37084000Y-110109000D03*
D20*
X54864000Y-86360000D03*
X51943000Y-86360000D03*
X60833000Y-86360000D03*
X57912000Y-86360000D03*
D22*
X65151000Y-36830000D03*
X65151000Y-38735000D03*
D19*
X55499000Y-30607000D03*
X53594000Y-30607000D03*
D21*
X67437000Y-37084000D03*
X67437000Y-40005000D03*
D20*
X55245000Y-28194000D03*
X52324000Y-28194000D03*
X62230000Y-55245000D03*
X65151000Y-55245000D03*
X56261000Y-55880000D03*
X53340000Y-55880000D03*
D21*
X68834000Y-69215000D03*
X68834000Y-66294000D03*
D20*
X55753000Y-65659000D03*
X52832000Y-65659000D03*
X62230000Y-65024000D03*
X65151000Y-65024000D03*
X55753000Y-79375000D03*
X52832000Y-79375000D03*
X62230000Y-78613000D03*
X65151000Y-78613000D03*
D21*
X57150000Y-74549000D03*
X57150000Y-71628000D03*
D18*
X78232000Y-56388000D03*
X80772000Y-58928000D03*
X75692000Y-58928000D03*
X29972000Y-85090000D03*
X32512000Y-85090000D03*
X35052000Y-85090000D03*
X37592000Y-85090000D03*
X40132000Y-85090000D03*
X42672000Y-85090000D03*
X45212000Y-85090000D03*
X47752000Y-85090000D03*
X29972000Y-54610000D03*
X32512000Y-54610000D03*
X35052000Y-54610000D03*
X37592000Y-54610000D03*
X40132000Y-54610000D03*
X42672000Y-54610000D03*
X45212000Y-54610000D03*
X47752000Y-54610000D03*
D28*
X47752000Y-67310000D03*
X47752000Y-59182000D03*
D29*
X29210000Y-29210000D03*
X66040000Y-29210000D03*
X29210000Y-115570000D03*
X58420000Y-115570000D03*
M02*
