G04 #@! TF.FileFunction,Copper,L2,Bot,Signal*
%FSLAX46Y46*%
G04 Gerber Fmt 4.6, Leading zero omitted, Abs format (unit mm)*
G04 Created by KiCad (PCBNEW (after 2015-mar-04 BZR unknown)-product) date 11/22/2015 6:31:28 PM*
%MOMM*%
G01*
G04 APERTURE LIST*
%ADD10C,0.100000*%
%ADD11C,1.651000*%
%ADD12C,1.397000*%
%ADD13C,1.524000*%
%ADD14C,2.921000*%
%ADD15C,3.175000*%
%ADD16C,1.778000*%
%ADD17C,5.080000*%
%ADD18C,1.016000*%
%ADD19C,0.381000*%
%ADD20C,0.635000*%
%ADD21C,0.254000*%
G04 APERTURE END LIST*
D10*
D11*
X53086000Y-116078000D03*
X48006000Y-116078000D03*
X42164000Y-116078000D03*
X37084000Y-116078000D03*
D12*
X74549000Y-47244000D03*
X74549000Y-49784000D03*
X74549000Y-52324000D03*
X82169000Y-52324000D03*
X82169000Y-49784000D03*
X82169000Y-47244000D03*
D13*
X53848000Y-37719000D03*
X51308000Y-40259000D03*
X51308000Y-35179000D03*
D14*
X81534000Y-113538000D03*
X66294000Y-113538000D03*
X81534000Y-100838000D03*
X66294000Y-100838000D03*
X81534000Y-88138000D03*
X66294000Y-88138000D03*
D15*
X77470000Y-38100000D03*
D11*
X72390000Y-33020000D03*
X72390000Y-30480000D03*
D15*
X77470000Y-27940000D03*
X77470000Y-76200000D03*
D11*
X72390000Y-71120000D03*
X72390000Y-68580000D03*
D15*
X77470000Y-66040000D03*
D13*
X78232000Y-56388000D03*
X80772000Y-58928000D03*
X75692000Y-58928000D03*
X29972000Y-85090000D03*
X32512000Y-85090000D03*
X35052000Y-85090000D03*
X37592000Y-85090000D03*
X40132000Y-85090000D03*
X42672000Y-85090000D03*
X45212000Y-85090000D03*
X47752000Y-85090000D03*
X29972000Y-54610000D03*
X32512000Y-54610000D03*
X35052000Y-54610000D03*
X37592000Y-54610000D03*
X40132000Y-54610000D03*
X42672000Y-54610000D03*
X45212000Y-54610000D03*
X47752000Y-54610000D03*
D16*
X47752000Y-67310000D03*
X47752000Y-59182000D03*
D17*
X29210000Y-29210000D03*
X66040000Y-29210000D03*
X29210000Y-115570000D03*
X58420000Y-115570000D03*
D18*
X58166000Y-57785000D03*
X56642000Y-47498000D03*
X68961000Y-74422000D03*
X54102000Y-107823000D03*
X35052000Y-99441000D03*
X52070000Y-30607000D03*
X65151000Y-40259000D03*
X53340000Y-57658000D03*
X65151000Y-57150000D03*
X65151000Y-66929000D03*
X59436000Y-71247000D03*
X52832000Y-67564000D03*
X51054000Y-79375000D03*
X66929000Y-78613000D03*
X62738000Y-85979000D03*
X54864000Y-82423000D03*
X56642000Y-49911000D03*
X51181000Y-49911000D03*
X40132000Y-88265000D03*
X40132000Y-92710000D03*
X40132000Y-46990000D03*
X40132000Y-43053000D03*
X50800000Y-94742000D03*
X54229000Y-94742000D03*
X37592000Y-46990000D03*
X37592000Y-44450000D03*
X46609000Y-42164000D03*
X52832000Y-42164000D03*
X63754000Y-80391000D03*
X63754000Y-82677000D03*
X64770000Y-48514000D03*
X56642000Y-45720000D03*
X46736000Y-45720000D03*
X35814000Y-67310000D03*
D19*
X56642000Y-49911000D02*
X51181000Y-49911000D01*
D20*
X40132000Y-88265000D02*
X40132000Y-92710000D01*
X40132000Y-46990000D02*
X40132000Y-43053000D01*
D19*
X50800000Y-94742000D02*
X54229000Y-94742000D01*
D20*
X37592000Y-46990000D02*
X37592000Y-44450000D01*
X52832000Y-42164000D02*
X46609000Y-42164000D01*
D19*
X63754000Y-80391000D02*
X63754000Y-82677000D01*
X53721000Y-35179000D02*
X64770000Y-46228000D01*
X64770000Y-46228000D02*
X64770000Y-48514000D01*
X51308000Y-35179000D02*
X53721000Y-35179000D01*
X46736000Y-45720000D02*
X56642000Y-45720000D01*
X47879000Y-67310000D02*
X47752000Y-67310000D01*
X35814000Y-67310000D02*
X47879000Y-67310000D01*
D21*
G36*
X83135000Y-118695000D02*
X73850753Y-118695000D01*
X73850753Y-70830763D01*
X73725439Y-70527479D01*
X73725439Y-68835307D01*
X73721486Y-68304822D01*
X73526083Y-67833077D01*
X73305341Y-67754461D01*
X73215539Y-67844263D01*
X73215539Y-67664659D01*
X73136923Y-67443917D01*
X72645307Y-67244561D01*
X72114822Y-67248514D01*
X71643077Y-67443917D01*
X71564461Y-67664659D01*
X72390000Y-68490197D01*
X73215539Y-67664659D01*
X73215539Y-67844263D01*
X72479803Y-68580000D01*
X73305341Y-69405539D01*
X73526083Y-69326923D01*
X73725439Y-68835307D01*
X73725439Y-70527479D01*
X73628874Y-70293774D01*
X73218387Y-69882570D01*
X72976985Y-69782331D01*
X73136923Y-69716083D01*
X73215539Y-69495341D01*
X72390000Y-68669803D01*
X72300197Y-68759605D01*
X72300197Y-68580000D01*
X71474659Y-67754461D01*
X71253917Y-67833077D01*
X71054561Y-68324693D01*
X71058514Y-68855178D01*
X71253917Y-69326923D01*
X71474659Y-69405539D01*
X72300197Y-68580000D01*
X72300197Y-68759605D01*
X71564461Y-69495341D01*
X71643077Y-69716083D01*
X71804644Y-69781600D01*
X71563774Y-69881126D01*
X71152570Y-70291613D01*
X70929754Y-70828214D01*
X70929247Y-71409237D01*
X71151126Y-71946226D01*
X71561613Y-72357430D01*
X72098214Y-72580246D01*
X72679237Y-72580753D01*
X73216226Y-72358874D01*
X73627430Y-71948387D01*
X73850246Y-71411786D01*
X73850753Y-70830763D01*
X73850753Y-118695000D01*
X69098878Y-118695000D01*
X69098878Y-28661231D01*
X68656030Y-27532421D01*
X68590992Y-27435086D01*
X68192106Y-27147696D01*
X68102304Y-27237498D01*
X68102304Y-27057894D01*
X67814914Y-26659008D01*
X66703585Y-26173960D01*
X65491231Y-26151122D01*
X64362421Y-26593970D01*
X64265086Y-26659008D01*
X63977696Y-27057894D01*
X66040000Y-29120197D01*
X68102304Y-27057894D01*
X68102304Y-27237498D01*
X66129803Y-29210000D01*
X68192106Y-31272304D01*
X68590992Y-30984914D01*
X69076040Y-29873585D01*
X69098878Y-28661231D01*
X69098878Y-118695000D01*
X68389863Y-118695000D01*
X68389863Y-113123008D01*
X68389863Y-87723008D01*
X68102304Y-87027062D01*
X68102304Y-31362106D01*
X66040000Y-29299803D01*
X65950197Y-29389605D01*
X65950197Y-29210000D01*
X63887894Y-27147696D01*
X63489008Y-27435086D01*
X63003960Y-28546415D01*
X62981122Y-29758769D01*
X63423970Y-30887579D01*
X63489008Y-30984914D01*
X63887894Y-31272304D01*
X65950197Y-29210000D01*
X65950197Y-29389605D01*
X63977696Y-31362106D01*
X64265086Y-31760992D01*
X65376415Y-32246040D01*
X66588769Y-32268878D01*
X67717579Y-31826030D01*
X67814914Y-31760992D01*
X68102304Y-31362106D01*
X68102304Y-87027062D01*
X68071514Y-86952545D01*
X67482555Y-86362558D01*
X66712649Y-86042865D01*
X65913198Y-86042166D01*
X65913198Y-48287641D01*
X65739554Y-47867388D01*
X65595500Y-47723082D01*
X65595500Y-46228005D01*
X65595500Y-46228000D01*
X65595501Y-46228000D01*
X65532663Y-45912095D01*
X65353717Y-45644284D01*
X65353717Y-45644283D01*
X65353713Y-45644280D01*
X54304717Y-34595283D01*
X54036906Y-34416337D01*
X53721000Y-34353500D01*
X52457874Y-34353500D01*
X52100370Y-33995371D01*
X51587100Y-33782243D01*
X51031339Y-33781758D01*
X50517697Y-33993990D01*
X50124371Y-34386630D01*
X49911243Y-34899900D01*
X49910758Y-35455661D01*
X50122990Y-35969303D01*
X50515630Y-36362629D01*
X51028900Y-36575757D01*
X51584661Y-36576242D01*
X52098303Y-36364010D01*
X52458441Y-36004500D01*
X53379066Y-36004500D01*
X53696433Y-36321867D01*
X53571339Y-36321758D01*
X53057697Y-36533990D01*
X52664371Y-36926630D01*
X52451243Y-37439900D01*
X52450758Y-37995661D01*
X52662990Y-38509303D01*
X53055630Y-38902629D01*
X53568900Y-39115757D01*
X54124661Y-39116242D01*
X54638303Y-38904010D01*
X55031629Y-38511370D01*
X55244757Y-37998100D01*
X55244868Y-37870302D01*
X63944500Y-46569933D01*
X63944500Y-47723022D01*
X63801577Y-47865697D01*
X63627199Y-48285646D01*
X63626802Y-48740359D01*
X63800446Y-49160612D01*
X64121697Y-49482423D01*
X64541646Y-49656801D01*
X64996359Y-49657198D01*
X65416612Y-49483554D01*
X65738423Y-49162303D01*
X65912801Y-48742354D01*
X65913198Y-48287641D01*
X65913198Y-86042166D01*
X65879008Y-86042137D01*
X65108545Y-86360486D01*
X64897198Y-86571464D01*
X64897198Y-82450641D01*
X64723554Y-82030388D01*
X64579500Y-81886082D01*
X64579500Y-81181977D01*
X64722423Y-81039303D01*
X64896801Y-80619354D01*
X64897198Y-80164641D01*
X64723554Y-79744388D01*
X64402303Y-79422577D01*
X63982354Y-79248199D01*
X63527641Y-79247802D01*
X63107388Y-79421446D01*
X62785577Y-79742697D01*
X62611199Y-80162646D01*
X62610802Y-80617359D01*
X62784446Y-81037612D01*
X62928500Y-81181917D01*
X62928500Y-81886022D01*
X62785577Y-82028697D01*
X62611199Y-82448646D01*
X62610802Y-82903359D01*
X62784446Y-83323612D01*
X63105697Y-83645423D01*
X63525646Y-83819801D01*
X63980359Y-83820198D01*
X64400612Y-83646554D01*
X64722423Y-83325303D01*
X64896801Y-82905354D01*
X64897198Y-82450641D01*
X64897198Y-86571464D01*
X64518558Y-86949445D01*
X64198865Y-87719351D01*
X64198137Y-88552992D01*
X64516486Y-89323455D01*
X65105445Y-89913442D01*
X65875351Y-90233135D01*
X66708992Y-90233863D01*
X67479455Y-89915514D01*
X68069442Y-89326555D01*
X68389135Y-88556649D01*
X68389863Y-87723008D01*
X68389863Y-113123008D01*
X68265428Y-112821852D01*
X68265428Y-100461464D01*
X67971268Y-99735693D01*
X67954261Y-99710240D01*
X67667549Y-99554253D01*
X67577747Y-99644055D01*
X67577747Y-99464451D01*
X67421760Y-99177739D01*
X66700560Y-98872544D01*
X65917464Y-98866572D01*
X65191693Y-99160732D01*
X65166240Y-99177739D01*
X65010253Y-99464451D01*
X66294000Y-100748197D01*
X67577747Y-99464451D01*
X67577747Y-99644055D01*
X66383803Y-100838000D01*
X67667549Y-102121747D01*
X67954261Y-101965760D01*
X68259456Y-101244560D01*
X68265428Y-100461464D01*
X68265428Y-112821852D01*
X68071514Y-112352545D01*
X67577747Y-111857916D01*
X67577747Y-102211549D01*
X66294000Y-100927803D01*
X66204197Y-101017605D01*
X66204197Y-100838000D01*
X64920451Y-99554253D01*
X64633739Y-99710240D01*
X64328544Y-100431440D01*
X64322572Y-101214536D01*
X64616732Y-101940307D01*
X64633739Y-101965760D01*
X64920451Y-102121747D01*
X66204197Y-100838000D01*
X66204197Y-101017605D01*
X65010253Y-102211549D01*
X65166240Y-102498261D01*
X65887440Y-102803456D01*
X66670536Y-102809428D01*
X67396307Y-102515268D01*
X67421760Y-102498261D01*
X67577747Y-102211549D01*
X67577747Y-111857916D01*
X67482555Y-111762558D01*
X66712649Y-111442865D01*
X65879008Y-111442137D01*
X65108545Y-111760486D01*
X64518558Y-112349445D01*
X64198865Y-113119351D01*
X64198137Y-113952992D01*
X64516486Y-114723455D01*
X65105445Y-115313442D01*
X65875351Y-115633135D01*
X66708992Y-115633863D01*
X67479455Y-115315514D01*
X68069442Y-114726555D01*
X68389135Y-113956649D01*
X68389863Y-113123008D01*
X68389863Y-118695000D01*
X61478878Y-118695000D01*
X61478878Y-115021231D01*
X61036030Y-113892421D01*
X60970992Y-113795086D01*
X60572106Y-113507696D01*
X60482304Y-113597498D01*
X60482304Y-113417894D01*
X60194914Y-113019008D01*
X59083585Y-112533960D01*
X57871231Y-112511122D01*
X57785198Y-112544873D01*
X57785198Y-49684641D01*
X57785198Y-45493641D01*
X57611554Y-45073388D01*
X57290303Y-44751577D01*
X56870354Y-44577199D01*
X56415641Y-44576802D01*
X55995388Y-44750446D01*
X55851082Y-44894500D01*
X53975198Y-44894500D01*
X53975198Y-41937641D01*
X53801554Y-41517388D01*
X53480303Y-41195577D01*
X53060354Y-41021199D01*
X52605641Y-41020802D01*
X52463357Y-41079591D01*
X52491629Y-41051370D01*
X52704757Y-40538100D01*
X52705242Y-39982339D01*
X52493010Y-39468697D01*
X52100370Y-39075371D01*
X51587100Y-38862243D01*
X51031339Y-38861758D01*
X50517697Y-39073990D01*
X50124371Y-39466630D01*
X49911243Y-39979900D01*
X49910758Y-40535661D01*
X50122990Y-41049303D01*
X50284904Y-41211500D01*
X47273198Y-41211500D01*
X47257303Y-41195577D01*
X46837354Y-41021199D01*
X46382641Y-41020802D01*
X45962388Y-41194446D01*
X45640577Y-41515697D01*
X45466199Y-41935646D01*
X45465802Y-42390359D01*
X45639446Y-42810612D01*
X45960697Y-43132423D01*
X46380646Y-43306801D01*
X46835359Y-43307198D01*
X47255612Y-43133554D01*
X47272695Y-43116500D01*
X52167801Y-43116500D01*
X52183697Y-43132423D01*
X52603646Y-43306801D01*
X53058359Y-43307198D01*
X53478612Y-43133554D01*
X53800423Y-42812303D01*
X53974801Y-42392354D01*
X53975198Y-41937641D01*
X53975198Y-44894500D01*
X47526977Y-44894500D01*
X47384303Y-44751577D01*
X46964354Y-44577199D01*
X46509641Y-44576802D01*
X46089388Y-44750446D01*
X45767577Y-45071697D01*
X45593199Y-45491646D01*
X45592802Y-45946359D01*
X45766446Y-46366612D01*
X46087697Y-46688423D01*
X46507646Y-46862801D01*
X46962359Y-46863198D01*
X47382612Y-46689554D01*
X47526917Y-46545500D01*
X55851022Y-46545500D01*
X55993697Y-46688423D01*
X56413646Y-46862801D01*
X56868359Y-46863198D01*
X57288612Y-46689554D01*
X57610423Y-46368303D01*
X57784801Y-45948354D01*
X57785198Y-45493641D01*
X57785198Y-49684641D01*
X57611554Y-49264388D01*
X57290303Y-48942577D01*
X56870354Y-48768199D01*
X56415641Y-48767802D01*
X55995388Y-48941446D01*
X55851082Y-49085500D01*
X51971977Y-49085500D01*
X51829303Y-48942577D01*
X51409354Y-48768199D01*
X50954641Y-48767802D01*
X50534388Y-48941446D01*
X50212577Y-49262697D01*
X50038199Y-49682646D01*
X50037802Y-50137359D01*
X50211446Y-50557612D01*
X50532697Y-50879423D01*
X50952646Y-51053801D01*
X51407359Y-51054198D01*
X51827612Y-50880554D01*
X51971917Y-50736500D01*
X55851022Y-50736500D01*
X55993697Y-50879423D01*
X56413646Y-51053801D01*
X56868359Y-51054198D01*
X57288612Y-50880554D01*
X57610423Y-50559303D01*
X57784801Y-50139354D01*
X57785198Y-49684641D01*
X57785198Y-112544873D01*
X56742421Y-112953970D01*
X56645086Y-113019008D01*
X56357696Y-113417894D01*
X58420000Y-115480197D01*
X60482304Y-113417894D01*
X60482304Y-113597498D01*
X58509803Y-115570000D01*
X60572106Y-117632304D01*
X60970992Y-117344914D01*
X61456040Y-116233585D01*
X61478878Y-115021231D01*
X61478878Y-118695000D01*
X60482304Y-118695000D01*
X60482304Y-117722106D01*
X58420000Y-115659803D01*
X58330197Y-115749605D01*
X58330197Y-115570000D01*
X56267894Y-113507696D01*
X55869008Y-113795086D01*
X55383960Y-114906415D01*
X55372198Y-115530800D01*
X55372198Y-94515641D01*
X55198554Y-94095388D01*
X54877303Y-93773577D01*
X54457354Y-93599199D01*
X54002641Y-93598802D01*
X53582388Y-93772446D01*
X53438082Y-93916500D01*
X51590977Y-93916500D01*
X51448303Y-93773577D01*
X51028354Y-93599199D01*
X50573641Y-93598802D01*
X50153388Y-93772446D01*
X49831577Y-94093697D01*
X49657199Y-94513646D01*
X49656802Y-94968359D01*
X49830446Y-95388612D01*
X50151697Y-95710423D01*
X50571646Y-95884801D01*
X51026359Y-95885198D01*
X51446612Y-95711554D01*
X51590917Y-95567500D01*
X53438022Y-95567500D01*
X53580697Y-95710423D01*
X54000646Y-95884801D01*
X54455359Y-95885198D01*
X54875612Y-95711554D01*
X55197423Y-95390303D01*
X55371801Y-94970354D01*
X55372198Y-94515641D01*
X55372198Y-115530800D01*
X55361122Y-116118769D01*
X55803970Y-117247579D01*
X55869008Y-117344914D01*
X56267894Y-117632304D01*
X58330197Y-115570000D01*
X58330197Y-115749605D01*
X56357696Y-117722106D01*
X56645086Y-118120992D01*
X57756415Y-118606040D01*
X58968769Y-118628878D01*
X60097579Y-118186030D01*
X60194914Y-118120992D01*
X60482304Y-117722106D01*
X60482304Y-118695000D01*
X54546753Y-118695000D01*
X54546753Y-115788763D01*
X54324874Y-115251774D01*
X53914387Y-114840570D01*
X53377786Y-114617754D01*
X52796763Y-114617247D01*
X52259774Y-114839126D01*
X51848570Y-115249613D01*
X51625754Y-115786214D01*
X51625247Y-116367237D01*
X51847126Y-116904226D01*
X52257613Y-117315430D01*
X52794214Y-117538246D01*
X53375237Y-117538753D01*
X53912226Y-117316874D01*
X54323430Y-116906387D01*
X54546246Y-116369786D01*
X54546753Y-115788763D01*
X54546753Y-118695000D01*
X49466753Y-118695000D01*
X49466753Y-115788763D01*
X49276264Y-115327743D01*
X49276264Y-67008188D01*
X49276264Y-58880188D01*
X49149242Y-58572770D01*
X49149242Y-54333339D01*
X48937010Y-53819697D01*
X48544370Y-53426371D01*
X48031100Y-53213243D01*
X47475339Y-53212758D01*
X46961697Y-53424990D01*
X46568371Y-53817630D01*
X46414515Y-54188156D01*
X46295645Y-53901177D01*
X46081496Y-53830307D01*
X45991693Y-53920110D01*
X45991693Y-53740504D01*
X45920823Y-53526355D01*
X45452174Y-53337588D01*
X44946962Y-53342534D01*
X44503177Y-53526355D01*
X44432307Y-53740504D01*
X45212000Y-54520197D01*
X45991693Y-53740504D01*
X45991693Y-53920110D01*
X45301803Y-54610000D01*
X46081496Y-55389693D01*
X46295645Y-55318823D01*
X46412969Y-55027543D01*
X46566990Y-55400303D01*
X46959630Y-55793629D01*
X47472900Y-56006757D01*
X48028661Y-56007242D01*
X48542303Y-55795010D01*
X48935629Y-55402370D01*
X49148757Y-54889100D01*
X49149242Y-54333339D01*
X49149242Y-58572770D01*
X49044738Y-58319851D01*
X48616404Y-57890769D01*
X48056472Y-57658265D01*
X47450188Y-57657736D01*
X46889851Y-57889262D01*
X46460769Y-58317596D01*
X46228265Y-58877528D01*
X46227736Y-59483812D01*
X46459262Y-60044149D01*
X46887596Y-60473231D01*
X47447528Y-60705735D01*
X48053812Y-60706264D01*
X48614149Y-60474738D01*
X49043231Y-60046404D01*
X49275735Y-59486472D01*
X49276264Y-58880188D01*
X49276264Y-67008188D01*
X49044738Y-66447851D01*
X48616404Y-66018769D01*
X48056472Y-65786265D01*
X47450188Y-65785736D01*
X46889851Y-66017262D01*
X46460769Y-66445596D01*
X46444614Y-66484500D01*
X45991693Y-66484500D01*
X45991693Y-55479496D01*
X45212000Y-54699803D01*
X45122197Y-54789606D01*
X45122197Y-54610000D01*
X44342504Y-53830307D01*
X44128355Y-53901177D01*
X43939706Y-54369531D01*
X43939466Y-54344962D01*
X43755645Y-53901177D01*
X43541496Y-53830307D01*
X43451693Y-53920110D01*
X43451693Y-53740504D01*
X43380823Y-53526355D01*
X42912174Y-53337588D01*
X42406962Y-53342534D01*
X41963177Y-53526355D01*
X41892307Y-53740504D01*
X42672000Y-54520197D01*
X43451693Y-53740504D01*
X43451693Y-53920110D01*
X42761803Y-54610000D01*
X43541496Y-55389693D01*
X43755645Y-55318823D01*
X43944293Y-54850468D01*
X43944534Y-54875038D01*
X44128355Y-55318823D01*
X44342504Y-55389693D01*
X45122197Y-54610000D01*
X45122197Y-54789606D01*
X44432307Y-55479496D01*
X44503177Y-55693645D01*
X44971826Y-55882412D01*
X45477038Y-55877466D01*
X45920823Y-55693645D01*
X45991693Y-55479496D01*
X45991693Y-66484500D01*
X43451693Y-66484500D01*
X43451693Y-55479496D01*
X42672000Y-54699803D01*
X42582197Y-54789606D01*
X42582197Y-54610000D01*
X41802504Y-53830307D01*
X41588355Y-53901177D01*
X41471030Y-54192456D01*
X41317010Y-53819697D01*
X41275198Y-53777811D01*
X41275198Y-46763641D01*
X41101554Y-46343388D01*
X41084500Y-46326304D01*
X41084500Y-43717198D01*
X41100423Y-43701303D01*
X41274801Y-43281354D01*
X41275198Y-42826641D01*
X41101554Y-42406388D01*
X40780303Y-42084577D01*
X40360354Y-41910199D01*
X39905641Y-41909802D01*
X39485388Y-42083446D01*
X39163577Y-42404697D01*
X38989199Y-42824646D01*
X38988802Y-43279359D01*
X39162446Y-43699612D01*
X39179500Y-43716695D01*
X39179500Y-46325801D01*
X39163577Y-46341697D01*
X38989199Y-46761646D01*
X38988802Y-47216359D01*
X39162446Y-47636612D01*
X39483697Y-47958423D01*
X39903646Y-48132801D01*
X40358359Y-48133198D01*
X40778612Y-47959554D01*
X41100423Y-47638303D01*
X41274801Y-47218354D01*
X41275198Y-46763641D01*
X41275198Y-53777811D01*
X40924370Y-53426371D01*
X40411100Y-53213243D01*
X39855339Y-53212758D01*
X39341697Y-53424990D01*
X38948371Y-53817630D01*
X38862050Y-54025512D01*
X38777010Y-53819697D01*
X38735198Y-53777811D01*
X38735198Y-46763641D01*
X38561554Y-46343388D01*
X38544500Y-46326304D01*
X38544500Y-45114198D01*
X38560423Y-45098303D01*
X38734801Y-44678354D01*
X38735198Y-44223641D01*
X38561554Y-43803388D01*
X38240303Y-43481577D01*
X37820354Y-43307199D01*
X37365641Y-43306802D01*
X36945388Y-43480446D01*
X36623577Y-43801697D01*
X36449199Y-44221646D01*
X36448802Y-44676359D01*
X36622446Y-45096612D01*
X36639500Y-45113695D01*
X36639500Y-46325801D01*
X36623577Y-46341697D01*
X36449199Y-46761646D01*
X36448802Y-47216359D01*
X36622446Y-47636612D01*
X36943697Y-47958423D01*
X37363646Y-48132801D01*
X37818359Y-48133198D01*
X38238612Y-47959554D01*
X38560423Y-47638303D01*
X38734801Y-47218354D01*
X38735198Y-46763641D01*
X38735198Y-53777811D01*
X38384370Y-53426371D01*
X37871100Y-53213243D01*
X37315339Y-53212758D01*
X36801697Y-53424990D01*
X36408371Y-53817630D01*
X36254515Y-54188156D01*
X36135645Y-53901177D01*
X35921496Y-53830307D01*
X35831693Y-53920110D01*
X35831693Y-53740504D01*
X35760823Y-53526355D01*
X35292174Y-53337588D01*
X34786962Y-53342534D01*
X34343177Y-53526355D01*
X34272307Y-53740504D01*
X35052000Y-54520197D01*
X35831693Y-53740504D01*
X35831693Y-53920110D01*
X35141803Y-54610000D01*
X35921496Y-55389693D01*
X36135645Y-55318823D01*
X36252969Y-55027543D01*
X36406990Y-55400303D01*
X36799630Y-55793629D01*
X37312900Y-56006757D01*
X37868661Y-56007242D01*
X38382303Y-55795010D01*
X38775629Y-55402370D01*
X38861949Y-55194487D01*
X38946990Y-55400303D01*
X39339630Y-55793629D01*
X39852900Y-56006757D01*
X40408661Y-56007242D01*
X40922303Y-55795010D01*
X41315629Y-55402370D01*
X41469484Y-55031843D01*
X41588355Y-55318823D01*
X41802504Y-55389693D01*
X42582197Y-54610000D01*
X42582197Y-54789606D01*
X41892307Y-55479496D01*
X41963177Y-55693645D01*
X42431826Y-55882412D01*
X42937038Y-55877466D01*
X43380823Y-55693645D01*
X43451693Y-55479496D01*
X43451693Y-66484500D01*
X36604977Y-66484500D01*
X36462303Y-66341577D01*
X36042354Y-66167199D01*
X35831693Y-66167015D01*
X35831693Y-55479496D01*
X35052000Y-54699803D01*
X34962197Y-54789606D01*
X34962197Y-54610000D01*
X34182504Y-53830307D01*
X33968355Y-53901177D01*
X33779706Y-54369531D01*
X33779466Y-54344962D01*
X33595645Y-53901177D01*
X33381496Y-53830307D01*
X33291693Y-53920110D01*
X33291693Y-53740504D01*
X33220823Y-53526355D01*
X32752174Y-53337588D01*
X32268878Y-53342319D01*
X32268878Y-28661231D01*
X31826030Y-27532421D01*
X31760992Y-27435086D01*
X31362106Y-27147696D01*
X31272304Y-27237498D01*
X31272304Y-27057894D01*
X30984914Y-26659008D01*
X29873585Y-26173960D01*
X28661231Y-26151122D01*
X27532421Y-26593970D01*
X27435086Y-26659008D01*
X27147696Y-27057894D01*
X29210000Y-29120197D01*
X31272304Y-27057894D01*
X31272304Y-27237498D01*
X29299803Y-29210000D01*
X31362106Y-31272304D01*
X31760992Y-30984914D01*
X32246040Y-29873585D01*
X32268878Y-28661231D01*
X32268878Y-53342319D01*
X32246962Y-53342534D01*
X31803177Y-53526355D01*
X31732307Y-53740504D01*
X32512000Y-54520197D01*
X33291693Y-53740504D01*
X33291693Y-53920110D01*
X32601803Y-54610000D01*
X33381496Y-55389693D01*
X33595645Y-55318823D01*
X33784293Y-54850468D01*
X33784534Y-54875038D01*
X33968355Y-55318823D01*
X34182504Y-55389693D01*
X34962197Y-54610000D01*
X34962197Y-54789606D01*
X34272307Y-55479496D01*
X34343177Y-55693645D01*
X34811826Y-55882412D01*
X35317038Y-55877466D01*
X35760823Y-55693645D01*
X35831693Y-55479496D01*
X35831693Y-66167015D01*
X35587641Y-66166802D01*
X35167388Y-66340446D01*
X34845577Y-66661697D01*
X34671199Y-67081646D01*
X34670802Y-67536359D01*
X34844446Y-67956612D01*
X35165697Y-68278423D01*
X35585646Y-68452801D01*
X36040359Y-68453198D01*
X36460612Y-68279554D01*
X36604917Y-68135500D01*
X46444118Y-68135500D01*
X46459262Y-68172149D01*
X46887596Y-68601231D01*
X47447528Y-68833735D01*
X48053812Y-68834264D01*
X48614149Y-68602738D01*
X49043231Y-68174404D01*
X49275735Y-67614472D01*
X49276264Y-67008188D01*
X49276264Y-115327743D01*
X49244874Y-115251774D01*
X49149242Y-115155974D01*
X49149242Y-84813339D01*
X48937010Y-84299697D01*
X48544370Y-83906371D01*
X48031100Y-83693243D01*
X47475339Y-83692758D01*
X46961697Y-83904990D01*
X46568371Y-84297630D01*
X46414515Y-84668156D01*
X46295645Y-84381177D01*
X46081496Y-84310307D01*
X45991693Y-84400110D01*
X45991693Y-84220504D01*
X45920823Y-84006355D01*
X45452174Y-83817588D01*
X44946962Y-83822534D01*
X44503177Y-84006355D01*
X44432307Y-84220504D01*
X45212000Y-85000197D01*
X45991693Y-84220504D01*
X45991693Y-84400110D01*
X45301803Y-85090000D01*
X46081496Y-85869693D01*
X46295645Y-85798823D01*
X46412969Y-85507543D01*
X46566990Y-85880303D01*
X46959630Y-86273629D01*
X47472900Y-86486757D01*
X48028661Y-86487242D01*
X48542303Y-86275010D01*
X48935629Y-85882370D01*
X49148757Y-85369100D01*
X49149242Y-84813339D01*
X49149242Y-115155974D01*
X48834387Y-114840570D01*
X48297786Y-114617754D01*
X47716763Y-114617247D01*
X47179774Y-114839126D01*
X46768570Y-115249613D01*
X46545754Y-115786214D01*
X46545247Y-116367237D01*
X46767126Y-116904226D01*
X47177613Y-117315430D01*
X47714214Y-117538246D01*
X48295237Y-117538753D01*
X48832226Y-117316874D01*
X49243430Y-116906387D01*
X49466246Y-116369786D01*
X49466753Y-115788763D01*
X49466753Y-118695000D01*
X45991693Y-118695000D01*
X45991693Y-85959496D01*
X45212000Y-85179803D01*
X45122197Y-85269606D01*
X45122197Y-85090000D01*
X44342504Y-84310307D01*
X44128355Y-84381177D01*
X43939706Y-84849531D01*
X43939466Y-84824962D01*
X43755645Y-84381177D01*
X43541496Y-84310307D01*
X43451693Y-84400110D01*
X43451693Y-84220504D01*
X43380823Y-84006355D01*
X42912174Y-83817588D01*
X42406962Y-83822534D01*
X41963177Y-84006355D01*
X41892307Y-84220504D01*
X42672000Y-85000197D01*
X43451693Y-84220504D01*
X43451693Y-84400110D01*
X42761803Y-85090000D01*
X43541496Y-85869693D01*
X43755645Y-85798823D01*
X43944293Y-85330468D01*
X43944534Y-85355038D01*
X44128355Y-85798823D01*
X44342504Y-85869693D01*
X45122197Y-85090000D01*
X45122197Y-85269606D01*
X44432307Y-85959496D01*
X44503177Y-86173645D01*
X44971826Y-86362412D01*
X45477038Y-86357466D01*
X45920823Y-86173645D01*
X45991693Y-85959496D01*
X45991693Y-118695000D01*
X43624753Y-118695000D01*
X43624753Y-115788763D01*
X43451693Y-115369925D01*
X43451693Y-85959496D01*
X42672000Y-85179803D01*
X42582197Y-85269606D01*
X42582197Y-85090000D01*
X41802504Y-84310307D01*
X41588355Y-84381177D01*
X41471030Y-84672456D01*
X41317010Y-84299697D01*
X40924370Y-83906371D01*
X40411100Y-83693243D01*
X39855339Y-83692758D01*
X39341697Y-83904990D01*
X38948371Y-84297630D01*
X38862050Y-84505512D01*
X38777010Y-84299697D01*
X38384370Y-83906371D01*
X37871100Y-83693243D01*
X37315339Y-83692758D01*
X36801697Y-83904990D01*
X36408371Y-84297630D01*
X36254515Y-84668156D01*
X36135645Y-84381177D01*
X35921496Y-84310307D01*
X35831693Y-84400110D01*
X35831693Y-84220504D01*
X35760823Y-84006355D01*
X35292174Y-83817588D01*
X34786962Y-83822534D01*
X34343177Y-84006355D01*
X34272307Y-84220504D01*
X35052000Y-85000197D01*
X35831693Y-84220504D01*
X35831693Y-84400110D01*
X35141803Y-85090000D01*
X35921496Y-85869693D01*
X36135645Y-85798823D01*
X36252969Y-85507543D01*
X36406990Y-85880303D01*
X36799630Y-86273629D01*
X37312900Y-86486757D01*
X37868661Y-86487242D01*
X38382303Y-86275010D01*
X38775629Y-85882370D01*
X38861949Y-85674487D01*
X38946990Y-85880303D01*
X39339630Y-86273629D01*
X39852900Y-86486757D01*
X40408661Y-86487242D01*
X40922303Y-86275010D01*
X41315629Y-85882370D01*
X41469484Y-85511843D01*
X41588355Y-85798823D01*
X41802504Y-85869693D01*
X42582197Y-85090000D01*
X42582197Y-85269606D01*
X41892307Y-85959496D01*
X41963177Y-86173645D01*
X42431826Y-86362412D01*
X42937038Y-86357466D01*
X43380823Y-86173645D01*
X43451693Y-85959496D01*
X43451693Y-115369925D01*
X43402874Y-115251774D01*
X42992387Y-114840570D01*
X42455786Y-114617754D01*
X41874763Y-114617247D01*
X41337774Y-114839126D01*
X41275198Y-114901592D01*
X41275198Y-92483641D01*
X41101554Y-92063388D01*
X41084500Y-92046304D01*
X41084500Y-88929198D01*
X41100423Y-88913303D01*
X41274801Y-88493354D01*
X41275198Y-88038641D01*
X41101554Y-87618388D01*
X40780303Y-87296577D01*
X40360354Y-87122199D01*
X39905641Y-87121802D01*
X39485388Y-87295446D01*
X39163577Y-87616697D01*
X38989199Y-88036646D01*
X38988802Y-88491359D01*
X39162446Y-88911612D01*
X39179500Y-88928695D01*
X39179500Y-92045801D01*
X39163577Y-92061697D01*
X38989199Y-92481646D01*
X38988802Y-92936359D01*
X39162446Y-93356612D01*
X39483697Y-93678423D01*
X39903646Y-93852801D01*
X40358359Y-93853198D01*
X40778612Y-93679554D01*
X41100423Y-93358303D01*
X41274801Y-92938354D01*
X41275198Y-92483641D01*
X41275198Y-114901592D01*
X40926570Y-115249613D01*
X40703754Y-115786214D01*
X40703247Y-116367237D01*
X40925126Y-116904226D01*
X41335613Y-117315430D01*
X41872214Y-117538246D01*
X42453237Y-117538753D01*
X42990226Y-117316874D01*
X43401430Y-116906387D01*
X43624246Y-116369786D01*
X43624753Y-115788763D01*
X43624753Y-118695000D01*
X38544753Y-118695000D01*
X38544753Y-115788763D01*
X38322874Y-115251774D01*
X37912387Y-114840570D01*
X37375786Y-114617754D01*
X36794763Y-114617247D01*
X36257774Y-114839126D01*
X35846570Y-115249613D01*
X35831693Y-115285440D01*
X35831693Y-85959496D01*
X35052000Y-85179803D01*
X34962197Y-85269606D01*
X34962197Y-85090000D01*
X34182504Y-84310307D01*
X33968355Y-84381177D01*
X33851030Y-84672456D01*
X33697010Y-84299697D01*
X33304370Y-83906371D01*
X33291693Y-83901107D01*
X33291693Y-55479496D01*
X32512000Y-54699803D01*
X32422197Y-54789606D01*
X32422197Y-54610000D01*
X31642504Y-53830307D01*
X31428355Y-53901177D01*
X31311030Y-54192456D01*
X31272304Y-54098731D01*
X31272304Y-31362106D01*
X29210000Y-29299803D01*
X29120197Y-29389605D01*
X29120197Y-29210000D01*
X27057894Y-27147696D01*
X26659008Y-27435086D01*
X26173960Y-28546415D01*
X26151122Y-29758769D01*
X26593970Y-30887579D01*
X26659008Y-30984914D01*
X27057894Y-31272304D01*
X29120197Y-29210000D01*
X29120197Y-29389605D01*
X27147696Y-31362106D01*
X27435086Y-31760992D01*
X28546415Y-32246040D01*
X29758769Y-32268878D01*
X30887579Y-31826030D01*
X30984914Y-31760992D01*
X31272304Y-31362106D01*
X31272304Y-54098731D01*
X31157010Y-53819697D01*
X30764370Y-53426371D01*
X30251100Y-53213243D01*
X29695339Y-53212758D01*
X29181697Y-53424990D01*
X28788371Y-53817630D01*
X28575243Y-54330900D01*
X28574758Y-54886661D01*
X28786990Y-55400303D01*
X29179630Y-55793629D01*
X29692900Y-56006757D01*
X30248661Y-56007242D01*
X30762303Y-55795010D01*
X31155629Y-55402370D01*
X31309484Y-55031843D01*
X31428355Y-55318823D01*
X31642504Y-55389693D01*
X32422197Y-54610000D01*
X32422197Y-54789606D01*
X31732307Y-55479496D01*
X31803177Y-55693645D01*
X32271826Y-55882412D01*
X32777038Y-55877466D01*
X33220823Y-55693645D01*
X33291693Y-55479496D01*
X33291693Y-83901107D01*
X32791100Y-83693243D01*
X32235339Y-83692758D01*
X31721697Y-83904990D01*
X31328371Y-84297630D01*
X31242050Y-84505512D01*
X31157010Y-84299697D01*
X30764370Y-83906371D01*
X30251100Y-83693243D01*
X29695339Y-83692758D01*
X29181697Y-83904990D01*
X28788371Y-84297630D01*
X28575243Y-84810900D01*
X28574758Y-85366661D01*
X28786990Y-85880303D01*
X29179630Y-86273629D01*
X29692900Y-86486757D01*
X30248661Y-86487242D01*
X30762303Y-86275010D01*
X31155629Y-85882370D01*
X31241949Y-85674487D01*
X31326990Y-85880303D01*
X31719630Y-86273629D01*
X32232900Y-86486757D01*
X32788661Y-86487242D01*
X33302303Y-86275010D01*
X33695629Y-85882370D01*
X33849484Y-85511843D01*
X33968355Y-85798823D01*
X34182504Y-85869693D01*
X34962197Y-85090000D01*
X34962197Y-85269606D01*
X34272307Y-85959496D01*
X34343177Y-86173645D01*
X34811826Y-86362412D01*
X35317038Y-86357466D01*
X35760823Y-86173645D01*
X35831693Y-85959496D01*
X35831693Y-115285440D01*
X35623754Y-115786214D01*
X35623247Y-116367237D01*
X35845126Y-116904226D01*
X36255613Y-117315430D01*
X36792214Y-117538246D01*
X37373237Y-117538753D01*
X37910226Y-117316874D01*
X38321430Y-116906387D01*
X38544246Y-116369786D01*
X38544753Y-115788763D01*
X38544753Y-118695000D01*
X32268878Y-118695000D01*
X32268878Y-115021231D01*
X31826030Y-113892421D01*
X31760992Y-113795086D01*
X31362106Y-113507696D01*
X31272304Y-113597498D01*
X31272304Y-113417894D01*
X30984914Y-113019008D01*
X29873585Y-112533960D01*
X28661231Y-112511122D01*
X27532421Y-112953970D01*
X27435086Y-113019008D01*
X27147696Y-113417894D01*
X29210000Y-115480197D01*
X31272304Y-113417894D01*
X31272304Y-113597498D01*
X29299803Y-115570000D01*
X31362106Y-117632304D01*
X31760992Y-117344914D01*
X32246040Y-116233585D01*
X32268878Y-115021231D01*
X32268878Y-118695000D01*
X31272304Y-118695000D01*
X31272304Y-117722106D01*
X29210000Y-115659803D01*
X29120197Y-115749605D01*
X29120197Y-115570000D01*
X27057894Y-113507696D01*
X26659008Y-113795086D01*
X26173960Y-114906415D01*
X26151122Y-116118769D01*
X26593970Y-117247579D01*
X26659008Y-117344914D01*
X27057894Y-117632304D01*
X29120197Y-115570000D01*
X29120197Y-115749605D01*
X27147696Y-117722106D01*
X27435086Y-118120992D01*
X28546415Y-118606040D01*
X29758769Y-118628878D01*
X30887579Y-118186030D01*
X30984914Y-118120992D01*
X31272304Y-117722106D01*
X31272304Y-118695000D01*
X26085000Y-118695000D01*
X26085000Y-26085000D01*
X76182405Y-26085000D01*
X75586955Y-26679411D01*
X75247887Y-27495978D01*
X75247115Y-28380143D01*
X75584758Y-29197300D01*
X76209411Y-29823045D01*
X77025978Y-30162113D01*
X77910143Y-30162885D01*
X78727300Y-29825242D01*
X79353045Y-29200589D01*
X79692113Y-28384022D01*
X79692885Y-27499857D01*
X79355242Y-26682700D01*
X78758585Y-26085000D01*
X83135000Y-26085000D01*
X83135000Y-46553451D01*
X82992644Y-46510159D01*
X82902841Y-46599962D01*
X82902841Y-46420356D01*
X82839720Y-46212801D01*
X82394042Y-46034623D01*
X81914104Y-46040561D01*
X81498280Y-46212801D01*
X81435159Y-46420356D01*
X82169000Y-47154197D01*
X82902841Y-46420356D01*
X82902841Y-46599962D01*
X82258803Y-47244000D01*
X82992644Y-47977841D01*
X83135000Y-47934548D01*
X83135000Y-49093451D01*
X82992644Y-49050159D01*
X82902841Y-49139962D01*
X82902841Y-48960356D01*
X82902841Y-48067644D01*
X82169000Y-47333803D01*
X82079197Y-47423606D01*
X82079197Y-47244000D01*
X81345356Y-46510159D01*
X81137801Y-46573280D01*
X80959623Y-47018958D01*
X80965561Y-47498896D01*
X81137801Y-47914720D01*
X81345356Y-47977841D01*
X82079197Y-47244000D01*
X82079197Y-47423606D01*
X81435159Y-48067644D01*
X81498280Y-48275199D01*
X81943958Y-48453377D01*
X82423896Y-48447439D01*
X82839720Y-48275199D01*
X82902841Y-48067644D01*
X82902841Y-48960356D01*
X82839720Y-48752801D01*
X82394042Y-48574623D01*
X81914104Y-48580561D01*
X81498280Y-48752801D01*
X81435159Y-48960356D01*
X82169000Y-49694197D01*
X82902841Y-48960356D01*
X82902841Y-49139962D01*
X82258803Y-49784000D01*
X82992644Y-50517841D01*
X83135000Y-50474548D01*
X83135000Y-51633451D01*
X82992644Y-51590159D01*
X82902841Y-51679962D01*
X82902841Y-51500356D01*
X82902841Y-50607644D01*
X82169000Y-49873803D01*
X82079197Y-49963606D01*
X82079197Y-49784000D01*
X81345356Y-49050159D01*
X81137801Y-49113280D01*
X80959623Y-49558958D01*
X80965561Y-50038896D01*
X81137801Y-50454720D01*
X81345356Y-50517841D01*
X82079197Y-49784000D01*
X82079197Y-49963606D01*
X81435159Y-50607644D01*
X81498280Y-50815199D01*
X81943958Y-50993377D01*
X82423896Y-50987439D01*
X82839720Y-50815199D01*
X82902841Y-50607644D01*
X82902841Y-51500356D01*
X82839720Y-51292801D01*
X82394042Y-51114623D01*
X81914104Y-51120561D01*
X81498280Y-51292801D01*
X81435159Y-51500356D01*
X82169000Y-52234197D01*
X82902841Y-51500356D01*
X82902841Y-51679962D01*
X82258803Y-52324000D01*
X82992644Y-53057841D01*
X83135000Y-53014548D01*
X83135000Y-86775722D01*
X82902841Y-86543158D01*
X82902841Y-53147644D01*
X82169000Y-52413803D01*
X82079197Y-52503606D01*
X82079197Y-52324000D01*
X81345356Y-51590159D01*
X81137801Y-51653280D01*
X80959623Y-52098958D01*
X80965561Y-52578896D01*
X81137801Y-52994720D01*
X81345356Y-53057841D01*
X82079197Y-52324000D01*
X82079197Y-52503606D01*
X81435159Y-53147644D01*
X81498280Y-53355199D01*
X81943958Y-53533377D01*
X82423896Y-53527439D01*
X82839720Y-53355199D01*
X82902841Y-53147644D01*
X82902841Y-86543158D01*
X82722555Y-86362558D01*
X82169242Y-86132802D01*
X82169242Y-58651339D01*
X81957010Y-58137697D01*
X81564370Y-57744371D01*
X81051100Y-57531243D01*
X80495339Y-57530758D01*
X79981697Y-57742990D01*
X79692885Y-58031298D01*
X79692885Y-37659857D01*
X79355242Y-36842700D01*
X78730589Y-36216955D01*
X77914022Y-35877887D01*
X77029857Y-35877115D01*
X76212700Y-36214758D01*
X75586955Y-36839411D01*
X75247887Y-37655978D01*
X75247115Y-38540143D01*
X75584758Y-39357300D01*
X76209411Y-39983045D01*
X77025978Y-40322113D01*
X77910143Y-40322885D01*
X78727300Y-39985242D01*
X79353045Y-39360589D01*
X79692113Y-38544022D01*
X79692885Y-37659857D01*
X79692885Y-58031298D01*
X79629242Y-58094830D01*
X79629242Y-56111339D01*
X79417010Y-55597697D01*
X79024370Y-55204371D01*
X78511100Y-54991243D01*
X77955339Y-54990758D01*
X77441697Y-55202990D01*
X77048371Y-55595630D01*
X76835243Y-56108900D01*
X76834758Y-56664661D01*
X77046990Y-57178303D01*
X77439630Y-57571629D01*
X77952900Y-57784757D01*
X78508661Y-57785242D01*
X79022303Y-57573010D01*
X79415629Y-57180370D01*
X79628757Y-56667100D01*
X79629242Y-56111339D01*
X79629242Y-58094830D01*
X79588371Y-58135630D01*
X79375243Y-58648900D01*
X79374758Y-59204661D01*
X79586990Y-59718303D01*
X79979630Y-60111629D01*
X80492900Y-60324757D01*
X81048661Y-60325242D01*
X81562303Y-60113010D01*
X81955629Y-59720370D01*
X82168757Y-59207100D01*
X82169242Y-58651339D01*
X82169242Y-86132802D01*
X81952649Y-86042865D01*
X81119008Y-86042137D01*
X80348545Y-86360486D01*
X79758558Y-86949445D01*
X79692885Y-87107603D01*
X79692885Y-75759857D01*
X79692885Y-65599857D01*
X79355242Y-64782700D01*
X78730589Y-64156955D01*
X77914022Y-63817887D01*
X77029857Y-63817115D01*
X76964412Y-63844156D01*
X76964412Y-59168174D01*
X76959466Y-58662962D01*
X76775645Y-58219177D01*
X76561496Y-58148307D01*
X76471693Y-58238110D01*
X76471693Y-58058504D01*
X76400823Y-57844355D01*
X75932174Y-57655588D01*
X75882731Y-57656072D01*
X75882731Y-52059914D01*
X75680146Y-51569620D01*
X75305353Y-51194173D01*
X74967553Y-51053906D01*
X75303380Y-50915146D01*
X75678827Y-50540353D01*
X75882268Y-50050413D01*
X75882731Y-49519914D01*
X75680146Y-49029620D01*
X75305353Y-48654173D01*
X74967553Y-48513906D01*
X75303380Y-48375146D01*
X75678827Y-48000353D01*
X75882268Y-47510413D01*
X75882731Y-46979914D01*
X75680146Y-46489620D01*
X75305353Y-46114173D01*
X74815413Y-45910732D01*
X74284914Y-45910269D01*
X73850753Y-46089660D01*
X73850753Y-32730763D01*
X73725439Y-32427479D01*
X73725439Y-30735307D01*
X73721486Y-30204822D01*
X73526083Y-29733077D01*
X73305341Y-29654461D01*
X73215539Y-29744263D01*
X73215539Y-29564659D01*
X73136923Y-29343917D01*
X72645307Y-29144561D01*
X72114822Y-29148514D01*
X71643077Y-29343917D01*
X71564461Y-29564659D01*
X72390000Y-30390197D01*
X73215539Y-29564659D01*
X73215539Y-29744263D01*
X72479803Y-30480000D01*
X73305341Y-31305539D01*
X73526083Y-31226923D01*
X73725439Y-30735307D01*
X73725439Y-32427479D01*
X73628874Y-32193774D01*
X73218387Y-31782570D01*
X72976985Y-31682331D01*
X73136923Y-31616083D01*
X73215539Y-31395341D01*
X72390000Y-30569803D01*
X72300197Y-30659605D01*
X72300197Y-30480000D01*
X71474659Y-29654461D01*
X71253917Y-29733077D01*
X71054561Y-30224693D01*
X71058514Y-30755178D01*
X71253917Y-31226923D01*
X71474659Y-31305539D01*
X72300197Y-30480000D01*
X72300197Y-30659605D01*
X71564461Y-31395341D01*
X71643077Y-31616083D01*
X71804644Y-31681600D01*
X71563774Y-31781126D01*
X71152570Y-32191613D01*
X70929754Y-32728214D01*
X70929247Y-33309237D01*
X71151126Y-33846226D01*
X71561613Y-34257430D01*
X72098214Y-34480246D01*
X72679237Y-34480753D01*
X73216226Y-34258874D01*
X73627430Y-33848387D01*
X73850246Y-33311786D01*
X73850753Y-32730763D01*
X73850753Y-46089660D01*
X73794620Y-46112854D01*
X73419173Y-46487647D01*
X73215732Y-46977587D01*
X73215269Y-47508086D01*
X73417854Y-47998380D01*
X73792647Y-48373827D01*
X74130446Y-48514093D01*
X73794620Y-48652854D01*
X73419173Y-49027647D01*
X73215732Y-49517587D01*
X73215269Y-50048086D01*
X73417854Y-50538380D01*
X73792647Y-50913827D01*
X74130446Y-51054093D01*
X73794620Y-51192854D01*
X73419173Y-51567647D01*
X73215732Y-52057587D01*
X73215269Y-52588086D01*
X73417854Y-53078380D01*
X73792647Y-53453827D01*
X74282587Y-53657268D01*
X74813086Y-53657731D01*
X75303380Y-53455146D01*
X75678827Y-53080353D01*
X75882268Y-52590413D01*
X75882731Y-52059914D01*
X75882731Y-57656072D01*
X75426962Y-57660534D01*
X74983177Y-57844355D01*
X74912307Y-58058504D01*
X75692000Y-58838197D01*
X76471693Y-58058504D01*
X76471693Y-58238110D01*
X75781803Y-58928000D01*
X76561496Y-59707693D01*
X76775645Y-59636823D01*
X76964412Y-59168174D01*
X76964412Y-63844156D01*
X76471693Y-64047744D01*
X76471693Y-59797496D01*
X75692000Y-59017803D01*
X75602197Y-59107606D01*
X75602197Y-58928000D01*
X74822504Y-58148307D01*
X74608355Y-58219177D01*
X74419588Y-58687826D01*
X74424534Y-59193038D01*
X74608355Y-59636823D01*
X74822504Y-59707693D01*
X75602197Y-58928000D01*
X75602197Y-59107606D01*
X74912307Y-59797496D01*
X74983177Y-60011645D01*
X75451826Y-60200412D01*
X75957038Y-60195466D01*
X76400823Y-60011645D01*
X76471693Y-59797496D01*
X76471693Y-64047744D01*
X76212700Y-64154758D01*
X75586955Y-64779411D01*
X75247887Y-65595978D01*
X75247115Y-66480143D01*
X75584758Y-67297300D01*
X76209411Y-67923045D01*
X77025978Y-68262113D01*
X77910143Y-68262885D01*
X78727300Y-67925242D01*
X79353045Y-67300589D01*
X79692113Y-66484022D01*
X79692885Y-65599857D01*
X79692885Y-75759857D01*
X79355242Y-74942700D01*
X78730589Y-74316955D01*
X77914022Y-73977887D01*
X77029857Y-73977115D01*
X76212700Y-74314758D01*
X75586955Y-74939411D01*
X75247887Y-75755978D01*
X75247115Y-76640143D01*
X75584758Y-77457300D01*
X76209411Y-78083045D01*
X77025978Y-78422113D01*
X77910143Y-78422885D01*
X78727300Y-78085242D01*
X79353045Y-77460589D01*
X79692113Y-76644022D01*
X79692885Y-75759857D01*
X79692885Y-87107603D01*
X79438865Y-87719351D01*
X79438137Y-88552992D01*
X79756486Y-89323455D01*
X80345445Y-89913442D01*
X81115351Y-90233135D01*
X81948992Y-90233863D01*
X82719455Y-89915514D01*
X83135000Y-89500693D01*
X83135000Y-99677998D01*
X82907549Y-99554253D01*
X82817747Y-99644055D01*
X82817747Y-99464451D01*
X82661760Y-99177739D01*
X81940560Y-98872544D01*
X81157464Y-98866572D01*
X80431693Y-99160732D01*
X80406240Y-99177739D01*
X80250253Y-99464451D01*
X81534000Y-100748197D01*
X82817747Y-99464451D01*
X82817747Y-99644055D01*
X81623803Y-100838000D01*
X82907549Y-102121747D01*
X83135000Y-101998001D01*
X83135000Y-112175722D01*
X82817747Y-111857915D01*
X82817747Y-102211549D01*
X81534000Y-100927803D01*
X81444197Y-101017605D01*
X81444197Y-100838000D01*
X80160451Y-99554253D01*
X79873739Y-99710240D01*
X79568544Y-100431440D01*
X79562572Y-101214536D01*
X79856732Y-101940307D01*
X79873739Y-101965760D01*
X80160451Y-102121747D01*
X81444197Y-100838000D01*
X81444197Y-101017605D01*
X80250253Y-102211549D01*
X80406240Y-102498261D01*
X81127440Y-102803456D01*
X81910536Y-102809428D01*
X82636307Y-102515268D01*
X82661760Y-102498261D01*
X82817747Y-102211549D01*
X82817747Y-111857915D01*
X82722555Y-111762558D01*
X81952649Y-111442865D01*
X81119008Y-111442137D01*
X80348545Y-111760486D01*
X79758558Y-112349445D01*
X79438865Y-113119351D01*
X79438137Y-113952992D01*
X79756486Y-114723455D01*
X80345445Y-115313442D01*
X81115351Y-115633135D01*
X81948992Y-115633863D01*
X82719455Y-115315514D01*
X83135000Y-114900693D01*
X83135000Y-118695000D01*
X83135000Y-118695000D01*
G37*
X83135000Y-118695000D02*
X73850753Y-118695000D01*
X73850753Y-70830763D01*
X73725439Y-70527479D01*
X73725439Y-68835307D01*
X73721486Y-68304822D01*
X73526083Y-67833077D01*
X73305341Y-67754461D01*
X73215539Y-67844263D01*
X73215539Y-67664659D01*
X73136923Y-67443917D01*
X72645307Y-67244561D01*
X72114822Y-67248514D01*
X71643077Y-67443917D01*
X71564461Y-67664659D01*
X72390000Y-68490197D01*
X73215539Y-67664659D01*
X73215539Y-67844263D01*
X72479803Y-68580000D01*
X73305341Y-69405539D01*
X73526083Y-69326923D01*
X73725439Y-68835307D01*
X73725439Y-70527479D01*
X73628874Y-70293774D01*
X73218387Y-69882570D01*
X72976985Y-69782331D01*
X73136923Y-69716083D01*
X73215539Y-69495341D01*
X72390000Y-68669803D01*
X72300197Y-68759605D01*
X72300197Y-68580000D01*
X71474659Y-67754461D01*
X71253917Y-67833077D01*
X71054561Y-68324693D01*
X71058514Y-68855178D01*
X71253917Y-69326923D01*
X71474659Y-69405539D01*
X72300197Y-68580000D01*
X72300197Y-68759605D01*
X71564461Y-69495341D01*
X71643077Y-69716083D01*
X71804644Y-69781600D01*
X71563774Y-69881126D01*
X71152570Y-70291613D01*
X70929754Y-70828214D01*
X70929247Y-71409237D01*
X71151126Y-71946226D01*
X71561613Y-72357430D01*
X72098214Y-72580246D01*
X72679237Y-72580753D01*
X73216226Y-72358874D01*
X73627430Y-71948387D01*
X73850246Y-71411786D01*
X73850753Y-70830763D01*
X73850753Y-118695000D01*
X69098878Y-118695000D01*
X69098878Y-28661231D01*
X68656030Y-27532421D01*
X68590992Y-27435086D01*
X68192106Y-27147696D01*
X68102304Y-27237498D01*
X68102304Y-27057894D01*
X67814914Y-26659008D01*
X66703585Y-26173960D01*
X65491231Y-26151122D01*
X64362421Y-26593970D01*
X64265086Y-26659008D01*
X63977696Y-27057894D01*
X66040000Y-29120197D01*
X68102304Y-27057894D01*
X68102304Y-27237498D01*
X66129803Y-29210000D01*
X68192106Y-31272304D01*
X68590992Y-30984914D01*
X69076040Y-29873585D01*
X69098878Y-28661231D01*
X69098878Y-118695000D01*
X68389863Y-118695000D01*
X68389863Y-113123008D01*
X68389863Y-87723008D01*
X68102304Y-87027062D01*
X68102304Y-31362106D01*
X66040000Y-29299803D01*
X65950197Y-29389605D01*
X65950197Y-29210000D01*
X63887894Y-27147696D01*
X63489008Y-27435086D01*
X63003960Y-28546415D01*
X62981122Y-29758769D01*
X63423970Y-30887579D01*
X63489008Y-30984914D01*
X63887894Y-31272304D01*
X65950197Y-29210000D01*
X65950197Y-29389605D01*
X63977696Y-31362106D01*
X64265086Y-31760992D01*
X65376415Y-32246040D01*
X66588769Y-32268878D01*
X67717579Y-31826030D01*
X67814914Y-31760992D01*
X68102304Y-31362106D01*
X68102304Y-87027062D01*
X68071514Y-86952545D01*
X67482555Y-86362558D01*
X66712649Y-86042865D01*
X65913198Y-86042166D01*
X65913198Y-48287641D01*
X65739554Y-47867388D01*
X65595500Y-47723082D01*
X65595500Y-46228005D01*
X65595500Y-46228000D01*
X65595501Y-46228000D01*
X65532663Y-45912095D01*
X65353717Y-45644284D01*
X65353717Y-45644283D01*
X65353713Y-45644280D01*
X54304717Y-34595283D01*
X54036906Y-34416337D01*
X53721000Y-34353500D01*
X52457874Y-34353500D01*
X52100370Y-33995371D01*
X51587100Y-33782243D01*
X51031339Y-33781758D01*
X50517697Y-33993990D01*
X50124371Y-34386630D01*
X49911243Y-34899900D01*
X49910758Y-35455661D01*
X50122990Y-35969303D01*
X50515630Y-36362629D01*
X51028900Y-36575757D01*
X51584661Y-36576242D01*
X52098303Y-36364010D01*
X52458441Y-36004500D01*
X53379066Y-36004500D01*
X53696433Y-36321867D01*
X53571339Y-36321758D01*
X53057697Y-36533990D01*
X52664371Y-36926630D01*
X52451243Y-37439900D01*
X52450758Y-37995661D01*
X52662990Y-38509303D01*
X53055630Y-38902629D01*
X53568900Y-39115757D01*
X54124661Y-39116242D01*
X54638303Y-38904010D01*
X55031629Y-38511370D01*
X55244757Y-37998100D01*
X55244868Y-37870302D01*
X63944500Y-46569933D01*
X63944500Y-47723022D01*
X63801577Y-47865697D01*
X63627199Y-48285646D01*
X63626802Y-48740359D01*
X63800446Y-49160612D01*
X64121697Y-49482423D01*
X64541646Y-49656801D01*
X64996359Y-49657198D01*
X65416612Y-49483554D01*
X65738423Y-49162303D01*
X65912801Y-48742354D01*
X65913198Y-48287641D01*
X65913198Y-86042166D01*
X65879008Y-86042137D01*
X65108545Y-86360486D01*
X64897198Y-86571464D01*
X64897198Y-82450641D01*
X64723554Y-82030388D01*
X64579500Y-81886082D01*
X64579500Y-81181977D01*
X64722423Y-81039303D01*
X64896801Y-80619354D01*
X64897198Y-80164641D01*
X64723554Y-79744388D01*
X64402303Y-79422577D01*
X63982354Y-79248199D01*
X63527641Y-79247802D01*
X63107388Y-79421446D01*
X62785577Y-79742697D01*
X62611199Y-80162646D01*
X62610802Y-80617359D01*
X62784446Y-81037612D01*
X62928500Y-81181917D01*
X62928500Y-81886022D01*
X62785577Y-82028697D01*
X62611199Y-82448646D01*
X62610802Y-82903359D01*
X62784446Y-83323612D01*
X63105697Y-83645423D01*
X63525646Y-83819801D01*
X63980359Y-83820198D01*
X64400612Y-83646554D01*
X64722423Y-83325303D01*
X64896801Y-82905354D01*
X64897198Y-82450641D01*
X64897198Y-86571464D01*
X64518558Y-86949445D01*
X64198865Y-87719351D01*
X64198137Y-88552992D01*
X64516486Y-89323455D01*
X65105445Y-89913442D01*
X65875351Y-90233135D01*
X66708992Y-90233863D01*
X67479455Y-89915514D01*
X68069442Y-89326555D01*
X68389135Y-88556649D01*
X68389863Y-87723008D01*
X68389863Y-113123008D01*
X68265428Y-112821852D01*
X68265428Y-100461464D01*
X67971268Y-99735693D01*
X67954261Y-99710240D01*
X67667549Y-99554253D01*
X67577747Y-99644055D01*
X67577747Y-99464451D01*
X67421760Y-99177739D01*
X66700560Y-98872544D01*
X65917464Y-98866572D01*
X65191693Y-99160732D01*
X65166240Y-99177739D01*
X65010253Y-99464451D01*
X66294000Y-100748197D01*
X67577747Y-99464451D01*
X67577747Y-99644055D01*
X66383803Y-100838000D01*
X67667549Y-102121747D01*
X67954261Y-101965760D01*
X68259456Y-101244560D01*
X68265428Y-100461464D01*
X68265428Y-112821852D01*
X68071514Y-112352545D01*
X67577747Y-111857916D01*
X67577747Y-102211549D01*
X66294000Y-100927803D01*
X66204197Y-101017605D01*
X66204197Y-100838000D01*
X64920451Y-99554253D01*
X64633739Y-99710240D01*
X64328544Y-100431440D01*
X64322572Y-101214536D01*
X64616732Y-101940307D01*
X64633739Y-101965760D01*
X64920451Y-102121747D01*
X66204197Y-100838000D01*
X66204197Y-101017605D01*
X65010253Y-102211549D01*
X65166240Y-102498261D01*
X65887440Y-102803456D01*
X66670536Y-102809428D01*
X67396307Y-102515268D01*
X67421760Y-102498261D01*
X67577747Y-102211549D01*
X67577747Y-111857916D01*
X67482555Y-111762558D01*
X66712649Y-111442865D01*
X65879008Y-111442137D01*
X65108545Y-111760486D01*
X64518558Y-112349445D01*
X64198865Y-113119351D01*
X64198137Y-113952992D01*
X64516486Y-114723455D01*
X65105445Y-115313442D01*
X65875351Y-115633135D01*
X66708992Y-115633863D01*
X67479455Y-115315514D01*
X68069442Y-114726555D01*
X68389135Y-113956649D01*
X68389863Y-113123008D01*
X68389863Y-118695000D01*
X61478878Y-118695000D01*
X61478878Y-115021231D01*
X61036030Y-113892421D01*
X60970992Y-113795086D01*
X60572106Y-113507696D01*
X60482304Y-113597498D01*
X60482304Y-113417894D01*
X60194914Y-113019008D01*
X59083585Y-112533960D01*
X57871231Y-112511122D01*
X57785198Y-112544873D01*
X57785198Y-49684641D01*
X57785198Y-45493641D01*
X57611554Y-45073388D01*
X57290303Y-44751577D01*
X56870354Y-44577199D01*
X56415641Y-44576802D01*
X55995388Y-44750446D01*
X55851082Y-44894500D01*
X53975198Y-44894500D01*
X53975198Y-41937641D01*
X53801554Y-41517388D01*
X53480303Y-41195577D01*
X53060354Y-41021199D01*
X52605641Y-41020802D01*
X52463357Y-41079591D01*
X52491629Y-41051370D01*
X52704757Y-40538100D01*
X52705242Y-39982339D01*
X52493010Y-39468697D01*
X52100370Y-39075371D01*
X51587100Y-38862243D01*
X51031339Y-38861758D01*
X50517697Y-39073990D01*
X50124371Y-39466630D01*
X49911243Y-39979900D01*
X49910758Y-40535661D01*
X50122990Y-41049303D01*
X50284904Y-41211500D01*
X47273198Y-41211500D01*
X47257303Y-41195577D01*
X46837354Y-41021199D01*
X46382641Y-41020802D01*
X45962388Y-41194446D01*
X45640577Y-41515697D01*
X45466199Y-41935646D01*
X45465802Y-42390359D01*
X45639446Y-42810612D01*
X45960697Y-43132423D01*
X46380646Y-43306801D01*
X46835359Y-43307198D01*
X47255612Y-43133554D01*
X47272695Y-43116500D01*
X52167801Y-43116500D01*
X52183697Y-43132423D01*
X52603646Y-43306801D01*
X53058359Y-43307198D01*
X53478612Y-43133554D01*
X53800423Y-42812303D01*
X53974801Y-42392354D01*
X53975198Y-41937641D01*
X53975198Y-44894500D01*
X47526977Y-44894500D01*
X47384303Y-44751577D01*
X46964354Y-44577199D01*
X46509641Y-44576802D01*
X46089388Y-44750446D01*
X45767577Y-45071697D01*
X45593199Y-45491646D01*
X45592802Y-45946359D01*
X45766446Y-46366612D01*
X46087697Y-46688423D01*
X46507646Y-46862801D01*
X46962359Y-46863198D01*
X47382612Y-46689554D01*
X47526917Y-46545500D01*
X55851022Y-46545500D01*
X55993697Y-46688423D01*
X56413646Y-46862801D01*
X56868359Y-46863198D01*
X57288612Y-46689554D01*
X57610423Y-46368303D01*
X57784801Y-45948354D01*
X57785198Y-45493641D01*
X57785198Y-49684641D01*
X57611554Y-49264388D01*
X57290303Y-48942577D01*
X56870354Y-48768199D01*
X56415641Y-48767802D01*
X55995388Y-48941446D01*
X55851082Y-49085500D01*
X51971977Y-49085500D01*
X51829303Y-48942577D01*
X51409354Y-48768199D01*
X50954641Y-48767802D01*
X50534388Y-48941446D01*
X50212577Y-49262697D01*
X50038199Y-49682646D01*
X50037802Y-50137359D01*
X50211446Y-50557612D01*
X50532697Y-50879423D01*
X50952646Y-51053801D01*
X51407359Y-51054198D01*
X51827612Y-50880554D01*
X51971917Y-50736500D01*
X55851022Y-50736500D01*
X55993697Y-50879423D01*
X56413646Y-51053801D01*
X56868359Y-51054198D01*
X57288612Y-50880554D01*
X57610423Y-50559303D01*
X57784801Y-50139354D01*
X57785198Y-49684641D01*
X57785198Y-112544873D01*
X56742421Y-112953970D01*
X56645086Y-113019008D01*
X56357696Y-113417894D01*
X58420000Y-115480197D01*
X60482304Y-113417894D01*
X60482304Y-113597498D01*
X58509803Y-115570000D01*
X60572106Y-117632304D01*
X60970992Y-117344914D01*
X61456040Y-116233585D01*
X61478878Y-115021231D01*
X61478878Y-118695000D01*
X60482304Y-118695000D01*
X60482304Y-117722106D01*
X58420000Y-115659803D01*
X58330197Y-115749605D01*
X58330197Y-115570000D01*
X56267894Y-113507696D01*
X55869008Y-113795086D01*
X55383960Y-114906415D01*
X55372198Y-115530800D01*
X55372198Y-94515641D01*
X55198554Y-94095388D01*
X54877303Y-93773577D01*
X54457354Y-93599199D01*
X54002641Y-93598802D01*
X53582388Y-93772446D01*
X53438082Y-93916500D01*
X51590977Y-93916500D01*
X51448303Y-93773577D01*
X51028354Y-93599199D01*
X50573641Y-93598802D01*
X50153388Y-93772446D01*
X49831577Y-94093697D01*
X49657199Y-94513646D01*
X49656802Y-94968359D01*
X49830446Y-95388612D01*
X50151697Y-95710423D01*
X50571646Y-95884801D01*
X51026359Y-95885198D01*
X51446612Y-95711554D01*
X51590917Y-95567500D01*
X53438022Y-95567500D01*
X53580697Y-95710423D01*
X54000646Y-95884801D01*
X54455359Y-95885198D01*
X54875612Y-95711554D01*
X55197423Y-95390303D01*
X55371801Y-94970354D01*
X55372198Y-94515641D01*
X55372198Y-115530800D01*
X55361122Y-116118769D01*
X55803970Y-117247579D01*
X55869008Y-117344914D01*
X56267894Y-117632304D01*
X58330197Y-115570000D01*
X58330197Y-115749605D01*
X56357696Y-117722106D01*
X56645086Y-118120992D01*
X57756415Y-118606040D01*
X58968769Y-118628878D01*
X60097579Y-118186030D01*
X60194914Y-118120992D01*
X60482304Y-117722106D01*
X60482304Y-118695000D01*
X54546753Y-118695000D01*
X54546753Y-115788763D01*
X54324874Y-115251774D01*
X53914387Y-114840570D01*
X53377786Y-114617754D01*
X52796763Y-114617247D01*
X52259774Y-114839126D01*
X51848570Y-115249613D01*
X51625754Y-115786214D01*
X51625247Y-116367237D01*
X51847126Y-116904226D01*
X52257613Y-117315430D01*
X52794214Y-117538246D01*
X53375237Y-117538753D01*
X53912226Y-117316874D01*
X54323430Y-116906387D01*
X54546246Y-116369786D01*
X54546753Y-115788763D01*
X54546753Y-118695000D01*
X49466753Y-118695000D01*
X49466753Y-115788763D01*
X49276264Y-115327743D01*
X49276264Y-67008188D01*
X49276264Y-58880188D01*
X49149242Y-58572770D01*
X49149242Y-54333339D01*
X48937010Y-53819697D01*
X48544370Y-53426371D01*
X48031100Y-53213243D01*
X47475339Y-53212758D01*
X46961697Y-53424990D01*
X46568371Y-53817630D01*
X46414515Y-54188156D01*
X46295645Y-53901177D01*
X46081496Y-53830307D01*
X45991693Y-53920110D01*
X45991693Y-53740504D01*
X45920823Y-53526355D01*
X45452174Y-53337588D01*
X44946962Y-53342534D01*
X44503177Y-53526355D01*
X44432307Y-53740504D01*
X45212000Y-54520197D01*
X45991693Y-53740504D01*
X45991693Y-53920110D01*
X45301803Y-54610000D01*
X46081496Y-55389693D01*
X46295645Y-55318823D01*
X46412969Y-55027543D01*
X46566990Y-55400303D01*
X46959630Y-55793629D01*
X47472900Y-56006757D01*
X48028661Y-56007242D01*
X48542303Y-55795010D01*
X48935629Y-55402370D01*
X49148757Y-54889100D01*
X49149242Y-54333339D01*
X49149242Y-58572770D01*
X49044738Y-58319851D01*
X48616404Y-57890769D01*
X48056472Y-57658265D01*
X47450188Y-57657736D01*
X46889851Y-57889262D01*
X46460769Y-58317596D01*
X46228265Y-58877528D01*
X46227736Y-59483812D01*
X46459262Y-60044149D01*
X46887596Y-60473231D01*
X47447528Y-60705735D01*
X48053812Y-60706264D01*
X48614149Y-60474738D01*
X49043231Y-60046404D01*
X49275735Y-59486472D01*
X49276264Y-58880188D01*
X49276264Y-67008188D01*
X49044738Y-66447851D01*
X48616404Y-66018769D01*
X48056472Y-65786265D01*
X47450188Y-65785736D01*
X46889851Y-66017262D01*
X46460769Y-66445596D01*
X46444614Y-66484500D01*
X45991693Y-66484500D01*
X45991693Y-55479496D01*
X45212000Y-54699803D01*
X45122197Y-54789606D01*
X45122197Y-54610000D01*
X44342504Y-53830307D01*
X44128355Y-53901177D01*
X43939706Y-54369531D01*
X43939466Y-54344962D01*
X43755645Y-53901177D01*
X43541496Y-53830307D01*
X43451693Y-53920110D01*
X43451693Y-53740504D01*
X43380823Y-53526355D01*
X42912174Y-53337588D01*
X42406962Y-53342534D01*
X41963177Y-53526355D01*
X41892307Y-53740504D01*
X42672000Y-54520197D01*
X43451693Y-53740504D01*
X43451693Y-53920110D01*
X42761803Y-54610000D01*
X43541496Y-55389693D01*
X43755645Y-55318823D01*
X43944293Y-54850468D01*
X43944534Y-54875038D01*
X44128355Y-55318823D01*
X44342504Y-55389693D01*
X45122197Y-54610000D01*
X45122197Y-54789606D01*
X44432307Y-55479496D01*
X44503177Y-55693645D01*
X44971826Y-55882412D01*
X45477038Y-55877466D01*
X45920823Y-55693645D01*
X45991693Y-55479496D01*
X45991693Y-66484500D01*
X43451693Y-66484500D01*
X43451693Y-55479496D01*
X42672000Y-54699803D01*
X42582197Y-54789606D01*
X42582197Y-54610000D01*
X41802504Y-53830307D01*
X41588355Y-53901177D01*
X41471030Y-54192456D01*
X41317010Y-53819697D01*
X41275198Y-53777811D01*
X41275198Y-46763641D01*
X41101554Y-46343388D01*
X41084500Y-46326304D01*
X41084500Y-43717198D01*
X41100423Y-43701303D01*
X41274801Y-43281354D01*
X41275198Y-42826641D01*
X41101554Y-42406388D01*
X40780303Y-42084577D01*
X40360354Y-41910199D01*
X39905641Y-41909802D01*
X39485388Y-42083446D01*
X39163577Y-42404697D01*
X38989199Y-42824646D01*
X38988802Y-43279359D01*
X39162446Y-43699612D01*
X39179500Y-43716695D01*
X39179500Y-46325801D01*
X39163577Y-46341697D01*
X38989199Y-46761646D01*
X38988802Y-47216359D01*
X39162446Y-47636612D01*
X39483697Y-47958423D01*
X39903646Y-48132801D01*
X40358359Y-48133198D01*
X40778612Y-47959554D01*
X41100423Y-47638303D01*
X41274801Y-47218354D01*
X41275198Y-46763641D01*
X41275198Y-53777811D01*
X40924370Y-53426371D01*
X40411100Y-53213243D01*
X39855339Y-53212758D01*
X39341697Y-53424990D01*
X38948371Y-53817630D01*
X38862050Y-54025512D01*
X38777010Y-53819697D01*
X38735198Y-53777811D01*
X38735198Y-46763641D01*
X38561554Y-46343388D01*
X38544500Y-46326304D01*
X38544500Y-45114198D01*
X38560423Y-45098303D01*
X38734801Y-44678354D01*
X38735198Y-44223641D01*
X38561554Y-43803388D01*
X38240303Y-43481577D01*
X37820354Y-43307199D01*
X37365641Y-43306802D01*
X36945388Y-43480446D01*
X36623577Y-43801697D01*
X36449199Y-44221646D01*
X36448802Y-44676359D01*
X36622446Y-45096612D01*
X36639500Y-45113695D01*
X36639500Y-46325801D01*
X36623577Y-46341697D01*
X36449199Y-46761646D01*
X36448802Y-47216359D01*
X36622446Y-47636612D01*
X36943697Y-47958423D01*
X37363646Y-48132801D01*
X37818359Y-48133198D01*
X38238612Y-47959554D01*
X38560423Y-47638303D01*
X38734801Y-47218354D01*
X38735198Y-46763641D01*
X38735198Y-53777811D01*
X38384370Y-53426371D01*
X37871100Y-53213243D01*
X37315339Y-53212758D01*
X36801697Y-53424990D01*
X36408371Y-53817630D01*
X36254515Y-54188156D01*
X36135645Y-53901177D01*
X35921496Y-53830307D01*
X35831693Y-53920110D01*
X35831693Y-53740504D01*
X35760823Y-53526355D01*
X35292174Y-53337588D01*
X34786962Y-53342534D01*
X34343177Y-53526355D01*
X34272307Y-53740504D01*
X35052000Y-54520197D01*
X35831693Y-53740504D01*
X35831693Y-53920110D01*
X35141803Y-54610000D01*
X35921496Y-55389693D01*
X36135645Y-55318823D01*
X36252969Y-55027543D01*
X36406990Y-55400303D01*
X36799630Y-55793629D01*
X37312900Y-56006757D01*
X37868661Y-56007242D01*
X38382303Y-55795010D01*
X38775629Y-55402370D01*
X38861949Y-55194487D01*
X38946990Y-55400303D01*
X39339630Y-55793629D01*
X39852900Y-56006757D01*
X40408661Y-56007242D01*
X40922303Y-55795010D01*
X41315629Y-55402370D01*
X41469484Y-55031843D01*
X41588355Y-55318823D01*
X41802504Y-55389693D01*
X42582197Y-54610000D01*
X42582197Y-54789606D01*
X41892307Y-55479496D01*
X41963177Y-55693645D01*
X42431826Y-55882412D01*
X42937038Y-55877466D01*
X43380823Y-55693645D01*
X43451693Y-55479496D01*
X43451693Y-66484500D01*
X36604977Y-66484500D01*
X36462303Y-66341577D01*
X36042354Y-66167199D01*
X35831693Y-66167015D01*
X35831693Y-55479496D01*
X35052000Y-54699803D01*
X34962197Y-54789606D01*
X34962197Y-54610000D01*
X34182504Y-53830307D01*
X33968355Y-53901177D01*
X33779706Y-54369531D01*
X33779466Y-54344962D01*
X33595645Y-53901177D01*
X33381496Y-53830307D01*
X33291693Y-53920110D01*
X33291693Y-53740504D01*
X33220823Y-53526355D01*
X32752174Y-53337588D01*
X32268878Y-53342319D01*
X32268878Y-28661231D01*
X31826030Y-27532421D01*
X31760992Y-27435086D01*
X31362106Y-27147696D01*
X31272304Y-27237498D01*
X31272304Y-27057894D01*
X30984914Y-26659008D01*
X29873585Y-26173960D01*
X28661231Y-26151122D01*
X27532421Y-26593970D01*
X27435086Y-26659008D01*
X27147696Y-27057894D01*
X29210000Y-29120197D01*
X31272304Y-27057894D01*
X31272304Y-27237498D01*
X29299803Y-29210000D01*
X31362106Y-31272304D01*
X31760992Y-30984914D01*
X32246040Y-29873585D01*
X32268878Y-28661231D01*
X32268878Y-53342319D01*
X32246962Y-53342534D01*
X31803177Y-53526355D01*
X31732307Y-53740504D01*
X32512000Y-54520197D01*
X33291693Y-53740504D01*
X33291693Y-53920110D01*
X32601803Y-54610000D01*
X33381496Y-55389693D01*
X33595645Y-55318823D01*
X33784293Y-54850468D01*
X33784534Y-54875038D01*
X33968355Y-55318823D01*
X34182504Y-55389693D01*
X34962197Y-54610000D01*
X34962197Y-54789606D01*
X34272307Y-55479496D01*
X34343177Y-55693645D01*
X34811826Y-55882412D01*
X35317038Y-55877466D01*
X35760823Y-55693645D01*
X35831693Y-55479496D01*
X35831693Y-66167015D01*
X35587641Y-66166802D01*
X35167388Y-66340446D01*
X34845577Y-66661697D01*
X34671199Y-67081646D01*
X34670802Y-67536359D01*
X34844446Y-67956612D01*
X35165697Y-68278423D01*
X35585646Y-68452801D01*
X36040359Y-68453198D01*
X36460612Y-68279554D01*
X36604917Y-68135500D01*
X46444118Y-68135500D01*
X46459262Y-68172149D01*
X46887596Y-68601231D01*
X47447528Y-68833735D01*
X48053812Y-68834264D01*
X48614149Y-68602738D01*
X49043231Y-68174404D01*
X49275735Y-67614472D01*
X49276264Y-67008188D01*
X49276264Y-115327743D01*
X49244874Y-115251774D01*
X49149242Y-115155974D01*
X49149242Y-84813339D01*
X48937010Y-84299697D01*
X48544370Y-83906371D01*
X48031100Y-83693243D01*
X47475339Y-83692758D01*
X46961697Y-83904990D01*
X46568371Y-84297630D01*
X46414515Y-84668156D01*
X46295645Y-84381177D01*
X46081496Y-84310307D01*
X45991693Y-84400110D01*
X45991693Y-84220504D01*
X45920823Y-84006355D01*
X45452174Y-83817588D01*
X44946962Y-83822534D01*
X44503177Y-84006355D01*
X44432307Y-84220504D01*
X45212000Y-85000197D01*
X45991693Y-84220504D01*
X45991693Y-84400110D01*
X45301803Y-85090000D01*
X46081496Y-85869693D01*
X46295645Y-85798823D01*
X46412969Y-85507543D01*
X46566990Y-85880303D01*
X46959630Y-86273629D01*
X47472900Y-86486757D01*
X48028661Y-86487242D01*
X48542303Y-86275010D01*
X48935629Y-85882370D01*
X49148757Y-85369100D01*
X49149242Y-84813339D01*
X49149242Y-115155974D01*
X48834387Y-114840570D01*
X48297786Y-114617754D01*
X47716763Y-114617247D01*
X47179774Y-114839126D01*
X46768570Y-115249613D01*
X46545754Y-115786214D01*
X46545247Y-116367237D01*
X46767126Y-116904226D01*
X47177613Y-117315430D01*
X47714214Y-117538246D01*
X48295237Y-117538753D01*
X48832226Y-117316874D01*
X49243430Y-116906387D01*
X49466246Y-116369786D01*
X49466753Y-115788763D01*
X49466753Y-118695000D01*
X45991693Y-118695000D01*
X45991693Y-85959496D01*
X45212000Y-85179803D01*
X45122197Y-85269606D01*
X45122197Y-85090000D01*
X44342504Y-84310307D01*
X44128355Y-84381177D01*
X43939706Y-84849531D01*
X43939466Y-84824962D01*
X43755645Y-84381177D01*
X43541496Y-84310307D01*
X43451693Y-84400110D01*
X43451693Y-84220504D01*
X43380823Y-84006355D01*
X42912174Y-83817588D01*
X42406962Y-83822534D01*
X41963177Y-84006355D01*
X41892307Y-84220504D01*
X42672000Y-85000197D01*
X43451693Y-84220504D01*
X43451693Y-84400110D01*
X42761803Y-85090000D01*
X43541496Y-85869693D01*
X43755645Y-85798823D01*
X43944293Y-85330468D01*
X43944534Y-85355038D01*
X44128355Y-85798823D01*
X44342504Y-85869693D01*
X45122197Y-85090000D01*
X45122197Y-85269606D01*
X44432307Y-85959496D01*
X44503177Y-86173645D01*
X44971826Y-86362412D01*
X45477038Y-86357466D01*
X45920823Y-86173645D01*
X45991693Y-85959496D01*
X45991693Y-118695000D01*
X43624753Y-118695000D01*
X43624753Y-115788763D01*
X43451693Y-115369925D01*
X43451693Y-85959496D01*
X42672000Y-85179803D01*
X42582197Y-85269606D01*
X42582197Y-85090000D01*
X41802504Y-84310307D01*
X41588355Y-84381177D01*
X41471030Y-84672456D01*
X41317010Y-84299697D01*
X40924370Y-83906371D01*
X40411100Y-83693243D01*
X39855339Y-83692758D01*
X39341697Y-83904990D01*
X38948371Y-84297630D01*
X38862050Y-84505512D01*
X38777010Y-84299697D01*
X38384370Y-83906371D01*
X37871100Y-83693243D01*
X37315339Y-83692758D01*
X36801697Y-83904990D01*
X36408371Y-84297630D01*
X36254515Y-84668156D01*
X36135645Y-84381177D01*
X35921496Y-84310307D01*
X35831693Y-84400110D01*
X35831693Y-84220504D01*
X35760823Y-84006355D01*
X35292174Y-83817588D01*
X34786962Y-83822534D01*
X34343177Y-84006355D01*
X34272307Y-84220504D01*
X35052000Y-85000197D01*
X35831693Y-84220504D01*
X35831693Y-84400110D01*
X35141803Y-85090000D01*
X35921496Y-85869693D01*
X36135645Y-85798823D01*
X36252969Y-85507543D01*
X36406990Y-85880303D01*
X36799630Y-86273629D01*
X37312900Y-86486757D01*
X37868661Y-86487242D01*
X38382303Y-86275010D01*
X38775629Y-85882370D01*
X38861949Y-85674487D01*
X38946990Y-85880303D01*
X39339630Y-86273629D01*
X39852900Y-86486757D01*
X40408661Y-86487242D01*
X40922303Y-86275010D01*
X41315629Y-85882370D01*
X41469484Y-85511843D01*
X41588355Y-85798823D01*
X41802504Y-85869693D01*
X42582197Y-85090000D01*
X42582197Y-85269606D01*
X41892307Y-85959496D01*
X41963177Y-86173645D01*
X42431826Y-86362412D01*
X42937038Y-86357466D01*
X43380823Y-86173645D01*
X43451693Y-85959496D01*
X43451693Y-115369925D01*
X43402874Y-115251774D01*
X42992387Y-114840570D01*
X42455786Y-114617754D01*
X41874763Y-114617247D01*
X41337774Y-114839126D01*
X41275198Y-114901592D01*
X41275198Y-92483641D01*
X41101554Y-92063388D01*
X41084500Y-92046304D01*
X41084500Y-88929198D01*
X41100423Y-88913303D01*
X41274801Y-88493354D01*
X41275198Y-88038641D01*
X41101554Y-87618388D01*
X40780303Y-87296577D01*
X40360354Y-87122199D01*
X39905641Y-87121802D01*
X39485388Y-87295446D01*
X39163577Y-87616697D01*
X38989199Y-88036646D01*
X38988802Y-88491359D01*
X39162446Y-88911612D01*
X39179500Y-88928695D01*
X39179500Y-92045801D01*
X39163577Y-92061697D01*
X38989199Y-92481646D01*
X38988802Y-92936359D01*
X39162446Y-93356612D01*
X39483697Y-93678423D01*
X39903646Y-93852801D01*
X40358359Y-93853198D01*
X40778612Y-93679554D01*
X41100423Y-93358303D01*
X41274801Y-92938354D01*
X41275198Y-92483641D01*
X41275198Y-114901592D01*
X40926570Y-115249613D01*
X40703754Y-115786214D01*
X40703247Y-116367237D01*
X40925126Y-116904226D01*
X41335613Y-117315430D01*
X41872214Y-117538246D01*
X42453237Y-117538753D01*
X42990226Y-117316874D01*
X43401430Y-116906387D01*
X43624246Y-116369786D01*
X43624753Y-115788763D01*
X43624753Y-118695000D01*
X38544753Y-118695000D01*
X38544753Y-115788763D01*
X38322874Y-115251774D01*
X37912387Y-114840570D01*
X37375786Y-114617754D01*
X36794763Y-114617247D01*
X36257774Y-114839126D01*
X35846570Y-115249613D01*
X35831693Y-115285440D01*
X35831693Y-85959496D01*
X35052000Y-85179803D01*
X34962197Y-85269606D01*
X34962197Y-85090000D01*
X34182504Y-84310307D01*
X33968355Y-84381177D01*
X33851030Y-84672456D01*
X33697010Y-84299697D01*
X33304370Y-83906371D01*
X33291693Y-83901107D01*
X33291693Y-55479496D01*
X32512000Y-54699803D01*
X32422197Y-54789606D01*
X32422197Y-54610000D01*
X31642504Y-53830307D01*
X31428355Y-53901177D01*
X31311030Y-54192456D01*
X31272304Y-54098731D01*
X31272304Y-31362106D01*
X29210000Y-29299803D01*
X29120197Y-29389605D01*
X29120197Y-29210000D01*
X27057894Y-27147696D01*
X26659008Y-27435086D01*
X26173960Y-28546415D01*
X26151122Y-29758769D01*
X26593970Y-30887579D01*
X26659008Y-30984914D01*
X27057894Y-31272304D01*
X29120197Y-29210000D01*
X29120197Y-29389605D01*
X27147696Y-31362106D01*
X27435086Y-31760992D01*
X28546415Y-32246040D01*
X29758769Y-32268878D01*
X30887579Y-31826030D01*
X30984914Y-31760992D01*
X31272304Y-31362106D01*
X31272304Y-54098731D01*
X31157010Y-53819697D01*
X30764370Y-53426371D01*
X30251100Y-53213243D01*
X29695339Y-53212758D01*
X29181697Y-53424990D01*
X28788371Y-53817630D01*
X28575243Y-54330900D01*
X28574758Y-54886661D01*
X28786990Y-55400303D01*
X29179630Y-55793629D01*
X29692900Y-56006757D01*
X30248661Y-56007242D01*
X30762303Y-55795010D01*
X31155629Y-55402370D01*
X31309484Y-55031843D01*
X31428355Y-55318823D01*
X31642504Y-55389693D01*
X32422197Y-54610000D01*
X32422197Y-54789606D01*
X31732307Y-55479496D01*
X31803177Y-55693645D01*
X32271826Y-55882412D01*
X32777038Y-55877466D01*
X33220823Y-55693645D01*
X33291693Y-55479496D01*
X33291693Y-83901107D01*
X32791100Y-83693243D01*
X32235339Y-83692758D01*
X31721697Y-83904990D01*
X31328371Y-84297630D01*
X31242050Y-84505512D01*
X31157010Y-84299697D01*
X30764370Y-83906371D01*
X30251100Y-83693243D01*
X29695339Y-83692758D01*
X29181697Y-83904990D01*
X28788371Y-84297630D01*
X28575243Y-84810900D01*
X28574758Y-85366661D01*
X28786990Y-85880303D01*
X29179630Y-86273629D01*
X29692900Y-86486757D01*
X30248661Y-86487242D01*
X30762303Y-86275010D01*
X31155629Y-85882370D01*
X31241949Y-85674487D01*
X31326990Y-85880303D01*
X31719630Y-86273629D01*
X32232900Y-86486757D01*
X32788661Y-86487242D01*
X33302303Y-86275010D01*
X33695629Y-85882370D01*
X33849484Y-85511843D01*
X33968355Y-85798823D01*
X34182504Y-85869693D01*
X34962197Y-85090000D01*
X34962197Y-85269606D01*
X34272307Y-85959496D01*
X34343177Y-86173645D01*
X34811826Y-86362412D01*
X35317038Y-86357466D01*
X35760823Y-86173645D01*
X35831693Y-85959496D01*
X35831693Y-115285440D01*
X35623754Y-115786214D01*
X35623247Y-116367237D01*
X35845126Y-116904226D01*
X36255613Y-117315430D01*
X36792214Y-117538246D01*
X37373237Y-117538753D01*
X37910226Y-117316874D01*
X38321430Y-116906387D01*
X38544246Y-116369786D01*
X38544753Y-115788763D01*
X38544753Y-118695000D01*
X32268878Y-118695000D01*
X32268878Y-115021231D01*
X31826030Y-113892421D01*
X31760992Y-113795086D01*
X31362106Y-113507696D01*
X31272304Y-113597498D01*
X31272304Y-113417894D01*
X30984914Y-113019008D01*
X29873585Y-112533960D01*
X28661231Y-112511122D01*
X27532421Y-112953970D01*
X27435086Y-113019008D01*
X27147696Y-113417894D01*
X29210000Y-115480197D01*
X31272304Y-113417894D01*
X31272304Y-113597498D01*
X29299803Y-115570000D01*
X31362106Y-117632304D01*
X31760992Y-117344914D01*
X32246040Y-116233585D01*
X32268878Y-115021231D01*
X32268878Y-118695000D01*
X31272304Y-118695000D01*
X31272304Y-117722106D01*
X29210000Y-115659803D01*
X29120197Y-115749605D01*
X29120197Y-115570000D01*
X27057894Y-113507696D01*
X26659008Y-113795086D01*
X26173960Y-114906415D01*
X26151122Y-116118769D01*
X26593970Y-117247579D01*
X26659008Y-117344914D01*
X27057894Y-117632304D01*
X29120197Y-115570000D01*
X29120197Y-115749605D01*
X27147696Y-117722106D01*
X27435086Y-118120992D01*
X28546415Y-118606040D01*
X29758769Y-118628878D01*
X30887579Y-118186030D01*
X30984914Y-118120992D01*
X31272304Y-117722106D01*
X31272304Y-118695000D01*
X26085000Y-118695000D01*
X26085000Y-26085000D01*
X76182405Y-26085000D01*
X75586955Y-26679411D01*
X75247887Y-27495978D01*
X75247115Y-28380143D01*
X75584758Y-29197300D01*
X76209411Y-29823045D01*
X77025978Y-30162113D01*
X77910143Y-30162885D01*
X78727300Y-29825242D01*
X79353045Y-29200589D01*
X79692113Y-28384022D01*
X79692885Y-27499857D01*
X79355242Y-26682700D01*
X78758585Y-26085000D01*
X83135000Y-26085000D01*
X83135000Y-46553451D01*
X82992644Y-46510159D01*
X82902841Y-46599962D01*
X82902841Y-46420356D01*
X82839720Y-46212801D01*
X82394042Y-46034623D01*
X81914104Y-46040561D01*
X81498280Y-46212801D01*
X81435159Y-46420356D01*
X82169000Y-47154197D01*
X82902841Y-46420356D01*
X82902841Y-46599962D01*
X82258803Y-47244000D01*
X82992644Y-47977841D01*
X83135000Y-47934548D01*
X83135000Y-49093451D01*
X82992644Y-49050159D01*
X82902841Y-49139962D01*
X82902841Y-48960356D01*
X82902841Y-48067644D01*
X82169000Y-47333803D01*
X82079197Y-47423606D01*
X82079197Y-47244000D01*
X81345356Y-46510159D01*
X81137801Y-46573280D01*
X80959623Y-47018958D01*
X80965561Y-47498896D01*
X81137801Y-47914720D01*
X81345356Y-47977841D01*
X82079197Y-47244000D01*
X82079197Y-47423606D01*
X81435159Y-48067644D01*
X81498280Y-48275199D01*
X81943958Y-48453377D01*
X82423896Y-48447439D01*
X82839720Y-48275199D01*
X82902841Y-48067644D01*
X82902841Y-48960356D01*
X82839720Y-48752801D01*
X82394042Y-48574623D01*
X81914104Y-48580561D01*
X81498280Y-48752801D01*
X81435159Y-48960356D01*
X82169000Y-49694197D01*
X82902841Y-48960356D01*
X82902841Y-49139962D01*
X82258803Y-49784000D01*
X82992644Y-50517841D01*
X83135000Y-50474548D01*
X83135000Y-51633451D01*
X82992644Y-51590159D01*
X82902841Y-51679962D01*
X82902841Y-51500356D01*
X82902841Y-50607644D01*
X82169000Y-49873803D01*
X82079197Y-49963606D01*
X82079197Y-49784000D01*
X81345356Y-49050159D01*
X81137801Y-49113280D01*
X80959623Y-49558958D01*
X80965561Y-50038896D01*
X81137801Y-50454720D01*
X81345356Y-50517841D01*
X82079197Y-49784000D01*
X82079197Y-49963606D01*
X81435159Y-50607644D01*
X81498280Y-50815199D01*
X81943958Y-50993377D01*
X82423896Y-50987439D01*
X82839720Y-50815199D01*
X82902841Y-50607644D01*
X82902841Y-51500356D01*
X82839720Y-51292801D01*
X82394042Y-51114623D01*
X81914104Y-51120561D01*
X81498280Y-51292801D01*
X81435159Y-51500356D01*
X82169000Y-52234197D01*
X82902841Y-51500356D01*
X82902841Y-51679962D01*
X82258803Y-52324000D01*
X82992644Y-53057841D01*
X83135000Y-53014548D01*
X83135000Y-86775722D01*
X82902841Y-86543158D01*
X82902841Y-53147644D01*
X82169000Y-52413803D01*
X82079197Y-52503606D01*
X82079197Y-52324000D01*
X81345356Y-51590159D01*
X81137801Y-51653280D01*
X80959623Y-52098958D01*
X80965561Y-52578896D01*
X81137801Y-52994720D01*
X81345356Y-53057841D01*
X82079197Y-52324000D01*
X82079197Y-52503606D01*
X81435159Y-53147644D01*
X81498280Y-53355199D01*
X81943958Y-53533377D01*
X82423896Y-53527439D01*
X82839720Y-53355199D01*
X82902841Y-53147644D01*
X82902841Y-86543158D01*
X82722555Y-86362558D01*
X82169242Y-86132802D01*
X82169242Y-58651339D01*
X81957010Y-58137697D01*
X81564370Y-57744371D01*
X81051100Y-57531243D01*
X80495339Y-57530758D01*
X79981697Y-57742990D01*
X79692885Y-58031298D01*
X79692885Y-37659857D01*
X79355242Y-36842700D01*
X78730589Y-36216955D01*
X77914022Y-35877887D01*
X77029857Y-35877115D01*
X76212700Y-36214758D01*
X75586955Y-36839411D01*
X75247887Y-37655978D01*
X75247115Y-38540143D01*
X75584758Y-39357300D01*
X76209411Y-39983045D01*
X77025978Y-40322113D01*
X77910143Y-40322885D01*
X78727300Y-39985242D01*
X79353045Y-39360589D01*
X79692113Y-38544022D01*
X79692885Y-37659857D01*
X79692885Y-58031298D01*
X79629242Y-58094830D01*
X79629242Y-56111339D01*
X79417010Y-55597697D01*
X79024370Y-55204371D01*
X78511100Y-54991243D01*
X77955339Y-54990758D01*
X77441697Y-55202990D01*
X77048371Y-55595630D01*
X76835243Y-56108900D01*
X76834758Y-56664661D01*
X77046990Y-57178303D01*
X77439630Y-57571629D01*
X77952900Y-57784757D01*
X78508661Y-57785242D01*
X79022303Y-57573010D01*
X79415629Y-57180370D01*
X79628757Y-56667100D01*
X79629242Y-56111339D01*
X79629242Y-58094830D01*
X79588371Y-58135630D01*
X79375243Y-58648900D01*
X79374758Y-59204661D01*
X79586990Y-59718303D01*
X79979630Y-60111629D01*
X80492900Y-60324757D01*
X81048661Y-60325242D01*
X81562303Y-60113010D01*
X81955629Y-59720370D01*
X82168757Y-59207100D01*
X82169242Y-58651339D01*
X82169242Y-86132802D01*
X81952649Y-86042865D01*
X81119008Y-86042137D01*
X80348545Y-86360486D01*
X79758558Y-86949445D01*
X79692885Y-87107603D01*
X79692885Y-75759857D01*
X79692885Y-65599857D01*
X79355242Y-64782700D01*
X78730589Y-64156955D01*
X77914022Y-63817887D01*
X77029857Y-63817115D01*
X76964412Y-63844156D01*
X76964412Y-59168174D01*
X76959466Y-58662962D01*
X76775645Y-58219177D01*
X76561496Y-58148307D01*
X76471693Y-58238110D01*
X76471693Y-58058504D01*
X76400823Y-57844355D01*
X75932174Y-57655588D01*
X75882731Y-57656072D01*
X75882731Y-52059914D01*
X75680146Y-51569620D01*
X75305353Y-51194173D01*
X74967553Y-51053906D01*
X75303380Y-50915146D01*
X75678827Y-50540353D01*
X75882268Y-50050413D01*
X75882731Y-49519914D01*
X75680146Y-49029620D01*
X75305353Y-48654173D01*
X74967553Y-48513906D01*
X75303380Y-48375146D01*
X75678827Y-48000353D01*
X75882268Y-47510413D01*
X75882731Y-46979914D01*
X75680146Y-46489620D01*
X75305353Y-46114173D01*
X74815413Y-45910732D01*
X74284914Y-45910269D01*
X73850753Y-46089660D01*
X73850753Y-32730763D01*
X73725439Y-32427479D01*
X73725439Y-30735307D01*
X73721486Y-30204822D01*
X73526083Y-29733077D01*
X73305341Y-29654461D01*
X73215539Y-29744263D01*
X73215539Y-29564659D01*
X73136923Y-29343917D01*
X72645307Y-29144561D01*
X72114822Y-29148514D01*
X71643077Y-29343917D01*
X71564461Y-29564659D01*
X72390000Y-30390197D01*
X73215539Y-29564659D01*
X73215539Y-29744263D01*
X72479803Y-30480000D01*
X73305341Y-31305539D01*
X73526083Y-31226923D01*
X73725439Y-30735307D01*
X73725439Y-32427479D01*
X73628874Y-32193774D01*
X73218387Y-31782570D01*
X72976985Y-31682331D01*
X73136923Y-31616083D01*
X73215539Y-31395341D01*
X72390000Y-30569803D01*
X72300197Y-30659605D01*
X72300197Y-30480000D01*
X71474659Y-29654461D01*
X71253917Y-29733077D01*
X71054561Y-30224693D01*
X71058514Y-30755178D01*
X71253917Y-31226923D01*
X71474659Y-31305539D01*
X72300197Y-30480000D01*
X72300197Y-30659605D01*
X71564461Y-31395341D01*
X71643077Y-31616083D01*
X71804644Y-31681600D01*
X71563774Y-31781126D01*
X71152570Y-32191613D01*
X70929754Y-32728214D01*
X70929247Y-33309237D01*
X71151126Y-33846226D01*
X71561613Y-34257430D01*
X72098214Y-34480246D01*
X72679237Y-34480753D01*
X73216226Y-34258874D01*
X73627430Y-33848387D01*
X73850246Y-33311786D01*
X73850753Y-32730763D01*
X73850753Y-46089660D01*
X73794620Y-46112854D01*
X73419173Y-46487647D01*
X73215732Y-46977587D01*
X73215269Y-47508086D01*
X73417854Y-47998380D01*
X73792647Y-48373827D01*
X74130446Y-48514093D01*
X73794620Y-48652854D01*
X73419173Y-49027647D01*
X73215732Y-49517587D01*
X73215269Y-50048086D01*
X73417854Y-50538380D01*
X73792647Y-50913827D01*
X74130446Y-51054093D01*
X73794620Y-51192854D01*
X73419173Y-51567647D01*
X73215732Y-52057587D01*
X73215269Y-52588086D01*
X73417854Y-53078380D01*
X73792647Y-53453827D01*
X74282587Y-53657268D01*
X74813086Y-53657731D01*
X75303380Y-53455146D01*
X75678827Y-53080353D01*
X75882268Y-52590413D01*
X75882731Y-52059914D01*
X75882731Y-57656072D01*
X75426962Y-57660534D01*
X74983177Y-57844355D01*
X74912307Y-58058504D01*
X75692000Y-58838197D01*
X76471693Y-58058504D01*
X76471693Y-58238110D01*
X75781803Y-58928000D01*
X76561496Y-59707693D01*
X76775645Y-59636823D01*
X76964412Y-59168174D01*
X76964412Y-63844156D01*
X76471693Y-64047744D01*
X76471693Y-59797496D01*
X75692000Y-59017803D01*
X75602197Y-59107606D01*
X75602197Y-58928000D01*
X74822504Y-58148307D01*
X74608355Y-58219177D01*
X74419588Y-58687826D01*
X74424534Y-59193038D01*
X74608355Y-59636823D01*
X74822504Y-59707693D01*
X75602197Y-58928000D01*
X75602197Y-59107606D01*
X74912307Y-59797496D01*
X74983177Y-60011645D01*
X75451826Y-60200412D01*
X75957038Y-60195466D01*
X76400823Y-60011645D01*
X76471693Y-59797496D01*
X76471693Y-64047744D01*
X76212700Y-64154758D01*
X75586955Y-64779411D01*
X75247887Y-65595978D01*
X75247115Y-66480143D01*
X75584758Y-67297300D01*
X76209411Y-67923045D01*
X77025978Y-68262113D01*
X77910143Y-68262885D01*
X78727300Y-67925242D01*
X79353045Y-67300589D01*
X79692113Y-66484022D01*
X79692885Y-65599857D01*
X79692885Y-75759857D01*
X79355242Y-74942700D01*
X78730589Y-74316955D01*
X77914022Y-73977887D01*
X77029857Y-73977115D01*
X76212700Y-74314758D01*
X75586955Y-74939411D01*
X75247887Y-75755978D01*
X75247115Y-76640143D01*
X75584758Y-77457300D01*
X76209411Y-78083045D01*
X77025978Y-78422113D01*
X77910143Y-78422885D01*
X78727300Y-78085242D01*
X79353045Y-77460589D01*
X79692113Y-76644022D01*
X79692885Y-75759857D01*
X79692885Y-87107603D01*
X79438865Y-87719351D01*
X79438137Y-88552992D01*
X79756486Y-89323455D01*
X80345445Y-89913442D01*
X81115351Y-90233135D01*
X81948992Y-90233863D01*
X82719455Y-89915514D01*
X83135000Y-89500693D01*
X83135000Y-99677998D01*
X82907549Y-99554253D01*
X82817747Y-99644055D01*
X82817747Y-99464451D01*
X82661760Y-99177739D01*
X81940560Y-98872544D01*
X81157464Y-98866572D01*
X80431693Y-99160732D01*
X80406240Y-99177739D01*
X80250253Y-99464451D01*
X81534000Y-100748197D01*
X82817747Y-99464451D01*
X82817747Y-99644055D01*
X81623803Y-100838000D01*
X82907549Y-102121747D01*
X83135000Y-101998001D01*
X83135000Y-112175722D01*
X82817747Y-111857915D01*
X82817747Y-102211549D01*
X81534000Y-100927803D01*
X81444197Y-101017605D01*
X81444197Y-100838000D01*
X80160451Y-99554253D01*
X79873739Y-99710240D01*
X79568544Y-100431440D01*
X79562572Y-101214536D01*
X79856732Y-101940307D01*
X79873739Y-101965760D01*
X80160451Y-102121747D01*
X81444197Y-100838000D01*
X81444197Y-101017605D01*
X80250253Y-102211549D01*
X80406240Y-102498261D01*
X81127440Y-102803456D01*
X81910536Y-102809428D01*
X82636307Y-102515268D01*
X82661760Y-102498261D01*
X82817747Y-102211549D01*
X82817747Y-111857915D01*
X82722555Y-111762558D01*
X81952649Y-111442865D01*
X81119008Y-111442137D01*
X80348545Y-111760486D01*
X79758558Y-112349445D01*
X79438865Y-113119351D01*
X79438137Y-113952992D01*
X79756486Y-114723455D01*
X80345445Y-115313442D01*
X81115351Y-115633135D01*
X81948992Y-115633863D01*
X82719455Y-115315514D01*
X83135000Y-114900693D01*
X83135000Y-118695000D01*
M02*
