M48
;DRILL file {kicad (after 2015-mar-04 BZR unknown)-product} date 11/22/2015 6:31:23 PM
;FORMAT={-:-/ absolute / inch / decimal}
FMAT,2
INCH,TZ
T1C0.020
T2C0.028
T3C0.030
T4C0.032
T5C0.035
T6C0.036
T7C0.065
T8C0.080
T9C0.120
%
G90
G05
M72
T1
X1.38Y-3.915
X1.41Y-2.65
X1.48Y-1.75
X1.48Y-1.85
X1.58Y-1.695
X1.58Y-1.85
X1.58Y-3.475
X1.58Y-3.65
X1.835Y-1.66
X1.84Y-1.8
X2.Y-3.73
X2.01Y-3.125
X2.015Y-1.965
X2.05Y-1.205
X2.08Y-1.66
X2.08Y-2.66
X2.1Y-2.27
X2.13Y-4.245
X2.135Y-3.73
X2.16Y-3.245
X2.23Y-1.8
X2.23Y-1.87
X2.23Y-1.965
X2.29Y-2.275
X2.34Y-2.805
X2.47Y-3.385
X2.51Y-3.165
X2.51Y-3.255
X2.55Y-1.91
X2.565Y-1.585
X2.565Y-2.25
X2.565Y-2.635
X2.635Y-3.095
X2.715Y-2.93
T2
X2.935Y-1.86
X2.935Y-1.96
X2.935Y-2.06
X3.235Y-1.86
X3.235Y-1.96
X3.235Y-2.06
T3
X1.18Y-2.15
X1.18Y-3.35
X1.28Y-2.15
X1.28Y-3.35
X1.38Y-2.15
X1.38Y-3.35
X1.48Y-2.15
X1.48Y-3.35
X1.58Y-2.15
X1.58Y-3.35
X1.68Y-2.15
X1.68Y-3.35
X1.78Y-2.15
X1.78Y-3.35
X1.88Y-2.15
X1.88Y-3.35
T4
X2.02Y-1.385
X2.02Y-1.585
X2.12Y-1.485
X2.98Y-2.32
X3.08Y-2.22
X3.18Y-2.32
T5
X1.46Y-4.57
X1.66Y-4.57
X1.89Y-4.57
X2.09Y-4.57
X2.85Y-1.2
X2.85Y-1.3
X2.85Y-2.7
X2.85Y-2.8
T6
X1.88Y-2.33
X1.88Y-2.65
T7
X2.61Y-3.47
X2.61Y-3.97
X2.61Y-4.47
X3.21Y-3.47
X3.21Y-3.97
X3.21Y-4.47
T8
X3.05Y-1.1
X3.05Y-1.5
X3.05Y-2.6
X3.05Y-3.
T9
X1.15Y-1.15
X1.15Y-4.55
X2.3Y-4.55
X2.6Y-1.15
T0
M30
